<?xml version="1.0" encoding="utf-8"?>
<!-- Svg Vector Icons : http://www.onlinewebfonts.com/icon -->
<!DOCTYPE svg PUBLIC "-//W3C//DTD SVG 1.1//EN" "http://www.w3.org/Graphics/SVG/1.1/DTD/svg11.dtd">
<svg version="1.1" xmlns="http://www.w3.org/2000/svg" xmlns:xlink="http://www.w3.org/1999/xlink" x="0px" y="0px" viewBox="0 0 1000 1000" enable-background="new 0 0 1000 1000" xml:space="preserve">
<metadata> Svg Vector Icons : http://www.onlinewebfonts.com/icon </metadata>
<g><path d="M970.3,664L547.5,241.1c-12.7-12.7-29.5-19.7-47.5-19.7c-17.9,0-34.8,7-47.5,19.7L29.7,664C17,676.6,10,693.5,10,711.4s7,34.8,19.7,47.5c12.7,12.7,29.5,19.7,47.5,19.7s34.8-7,47.5-19.7L500,383.5l375.4,375.4c12.7,12.7,29.5,19.7,47.5,19.7c17.9,0,34.8-7,47.5-19.7c12.7-12.7,19.7-29.5,19.7-47.5C990,693.5,983,676.7,970.3,664z"/></g>
</svg>