<?xml version="1.0" encoding="utf-8"?>
<!-- Svg Vector Icons : http://www.onlinewebfonts.com/icon -->
<!DOCTYPE svg PUBLIC "-//W3C//DTD SVG 1.1//EN" "http://www.w3.org/Graphics/SVG/1.1/DTD/svg11.dtd">
<svg version="1.1" xmlns="http://www.w3.org/2000/svg" xmlns:xlink="http://www.w3.org/1999/xlink" x="0px" y="0px" viewBox="0 0 1000 1000" enable-background="new 0 0 1000 1000" xml:space="preserve">
<metadata> Svg Vector Icons : http://www.onlinewebfonts.com/icon </metadata>
<g><g><path d="M500,1.1C229.9,1.1,10,221,10,491.1c0,233.2,163.9,428.8,382.6,478c-25.3-24.4-43-56.4-49.5-92.4C191,814.7,83.6,665.3,83.6,491.1C83.6,322.8,184,177.6,328,112c-5.7,32.5,18.7,70,46.4,103.6c25.1,30.4,14.3,53.3-5,69.4c-6.1,5-8.4,13.4-5.8,20.8c2.6,7.4,9.6,12.5,17.5,12.6c249.6,3.7,310.3-138.2,324.1-189.5c126.1,71.7,211.3,207.1,211.3,362.2c0,164.9-96.4,307.8-235.7,375.2c-4.3,36.5-20.2,69.4-43.7,95.2c203.7-59.4,353-247.7,353-470.4C990.1,221,770.2,1.1,500,1.1z"/><circle cx="369.4" cy="479.3" r="55.2"/><circle cx="626.8" cy="479.3" r="55.2"/><path d="M348.5,794.1c12.7-39.5,39.4-72.6,74.2-93.7c2.8-45.1,39.7-80.9,85-80.9c43.9,0,80,33.5,84.8,76.6c38.5,20.9,68.1,56.3,81.5,98.7c22.1-23,35-50.9,35-81c0-78.8-88.4-142.5-197.4-142.5c-109,0-197.5,63.8-197.5,142.5C314.2,743.6,326.9,771.2,348.5,794.1z"/><path d="M530.1,788.9c-6-2-12.4-3.1-19-3.1c-7.2,0-14.1,1.3-20.5,3.7c5.7,1.5,4.7,1.7-1.2,0.4c-22.7,8.8-38.8,30.7-38.8,56.5c0,1,0.1,2,0.2,3c19.2,4.5,39.6,6.9,60.9,6.9c20.9,0,40.9-2.4,59.8-6.7c0-1.1,0.2-2.2,0.2-3.3C571.7,819.6,554.2,796.9,530.1,788.9z"/><path d="M509.3,644.8c-30.8,0-57.1,18.9-68.1,45.7c21.3-9.6,45-15.1,69.9-15.1c23.2,0,45.2,4.7,65.4,13.1C565.1,662.8,539.3,644.8,509.3,644.8z"/><path d="M511.2,693.9c-84.1,0-152.5,68.4-152.5,152.5c0,84,68.4,152.5,152.5,152.5c84,0,152.5-68.4,152.5-152.5C663.6,762.3,595.2,693.9,511.2,693.9z M511.2,925.3c-43.5,0-78.9-35.4-78.9-78.9c0-43.5,35.4-78.9,78.9-78.9c43.5,0,78.9,35.4,78.9,78.9C590.1,889.9,554.7,925.3,511.2,925.3z"/></g></g>
</svg>