<?xml version="1.0" encoding="utf-8"?>
<!-- Svg Vector Icons : http://www.onlinewebfonts.com/icon -->
<!DOCTYPE svg PUBLIC "-//W3C//DTD SVG 1.1//EN" "http://www.w3.org/Graphics/SVG/1.1/DTD/svg11.dtd">
<svg version="1.1" xmlns="http://www.w3.org/2000/svg" xmlns:xlink="http://www.w3.org/1999/xlink" x="0px" y="0px" viewBox="0 0 1000 1000" enable-background="new 0 0 1000 1000" xml:space="preserve">
<metadata> Svg Vector Icons : http://www.onlinewebfonts.com/icon </metadata>
<g><path d="M34.1,441.8L441.7,34.1C473.9,2,526.1,2,558.2,34.1c32.2,32.1,32.2,84.3,0,116.5L208.8,500l349.5,349.4c32.2,32.2,32.2,84.3,0,116.5c-32.2,32.1-84.3,32.2-116.5,0L34.1,558.3C2,526.1,2,473.9,34.1,441.8L34.1,441.8z M524.3,417.1L847.9,76c32.5-34.3,85.2-34.2,117.7,0c32.5,34.2,32.5,89.8,0,124l-264.8,279l264.8,279.1c32.5,34.3,32.5,89.8,0,124.1c-32.5,34.3-85.2,34.3-117.7,0L524.3,541.2C491.8,506.9,491.8,451.4,524.3,417.1L524.3,417.1z"/></g>
</svg>