<?xml version="1.0" encoding="utf-8"?>
<!-- Svg Vector Icons : http://www.onlinewebfonts.com/icon -->
<!DOCTYPE svg PUBLIC "-//W3C//DTD SVG 1.1//EN" "http://www.w3.org/Graphics/SVG/1.1/DTD/svg11.dtd">
<svg version="1.1" xmlns="http://www.w3.org/2000/svg" xmlns:xlink="http://www.w3.org/1999/xlink" x="0px" y="0px" viewBox="0 0 1000 1000" enable-background="new 0 0 1000 1000" xml:space="preserve">
<metadata> Svg Vector Icons : http://www.onlinewebfonts.com/icon </metadata>
<g><g transform="translate(0.000000,512.000000) scale(0.100000,-0.100000)"><path d="M2437.2,4989.7c-154.9-63.1-361.5-403.6-439.9-730.6c-112.8-462.8-51.6-782.3,187.4-963.9c265.9-202.7,673.2-139.6,860.7,132c116.7,170.2,143.4,380.6,89.9,692.3c-51.6,298.4-147.3,520.2-307.9,726.8C2708.7,4997.3,2576.8,5045.2,2437.2,4989.7z"/><path d="M4885.2,4989.7c-68.9-28.7-128.1-88-214.2-216.1c-181.7-265.8-269.7-564.2-271.6-919.9c-1.9-218,1.9-235.2,53.5-340.4c65-128.1,170.2-229.5,296.5-288.8c66.9-30.6,124.3-40.2,250.5-40.2c126.2,0,183.6,9.6,250.6,40.2c126.2,59.3,231.4,160.7,296.5,288.8c51.6,105.2,55.4,122.4,53.5,340.4c0,170.2-11.5,273.5-44,401.6c-68.9,279.2-244.8,596.7-388.3,703.8C5109,5003.1,4956,5020.3,4885.2,4989.7z"/><path d="M7333.3,4989.7c-68.8-28.7-128.1-88-214.2-216.1c-181.7-265.8-269.7-562.3-271.6-919.9c-1.9-218,1.9-235.2,53.6-340.4c65-128.1,170.2-229.5,296.5-288.8c124.3-57.4,376.8-57.4,501.1,0c126.2,59.3,231.4,160.7,296.4,288.8c51.7,105.2,55.5,122.4,53.6,340.4c0,170.2-11.5,273.5-44,401.6c-68.8,279.2-244.8,596.7-388.3,703.8C7557.1,5003.1,7404.1,5020.3,7333.3,4989.7z"/><path d="M2408.5,2545.4c-176-45.9-330.9-172.1-411.2-336.6l-47.8-95.6l-5.7-692.4l-5.7-690.4l-424.6-7.7c-399.7-7.7-432.2-9.6-564.2-57.4c-198.9-70.8-336.6-158.7-482-302.2C323.8,217.8,237.7,82.1,165-118.8l-51.6-139.6l-5.7-791.8l-5.7-789.9l206.6,176c533.6,455.2,1080.6,715.3,1727,824.3c78.4,13.4,281.2,24.9,449.5,24.9c327.1,1.9,434.2-17.2,621.6-112.8c269.7-135.8,457.1-346.2,738.3-818.6c101.4-170.2,219.9-361.5,265.8-424.6c109-153,267.8-300.3,392.1-363.4c198.9-99.5,499.2-132,717.2-76.5c309.8,80.3,468.6,296.4,738.3,1000.3c229.5,598.6,382.5,868.3,617.8,1088.3c153,143.4,311.7,233.3,510.6,286.9c183.6,51.6,665.6,44,935.3-11.5c612-128.1,1239.3-460.9,1755.7-931.4l122.4-109l-7.7,514.5c-5.7,499.2-7.6,518.3-57.4,654.1c-72.7,198.9-158.7,336.6-302.2,482c-141.5,141.5-315.6,250.5-497.3,309.8c-107.1,36.3-179.8,42.1-548.9,49.7l-424.6,7.7l-5.7,690.4l-5.7,692.4l-47.8,95.6c-59.3,122.4-174,237.2-296.5,296.5c-137.7,66.9-378.7,66.9-516.4,0c-122.4-59.3-237.2-174-296.4-296.5l-47.8-95.6l-5.7-692.4l-5.7-694.3H6224h-610.1l-5.8,694.3l-5.7,692.4l-47.8,95.6c-59.3,122.4-174.1,237.2-296.4,296.5c-137.7,66.9-378.7,66.9-516.4,0c-122.4-59.3-237.2-174-296.4-296.5l-47.8-95.6l-5.7-692.4l-5.7-694.3H3776h-610.1l-5.7,694.3l-5.7,692.4l-47.8,95.6c-61.2,122.4-176,237.2-296.4,294.5C2706.8,2551.2,2511.7,2572.2,2408.5,2545.4z"/><path d="M7264.5-820.7c-193.2-49.7-350-187.4-480.1-420.8c-40.2-68.8-147.3-319.4-241-556.5c-93.7-237.2-212.3-512.6-263.9-612c-181.7-348.1-382.5-564.2-646.4-698.1c-214.2-107.1-338.5-132-652.2-132c-334.7,0-508.7,40.2-774.6,176c-143.4,72.7-204.6,120.5-372.9,288.8c-204.6,206.6-265.8,292.6-539.4,757.4c-342.3,579.5-508.7,663.7-1134.1,573.8c-669.4-95.6-1159-369.1-1765.3-983L100-2723.7l7.7-535.5c5.7-526,7.7-541.3,57.4-677c72.7-198.9,158.7-336.6,302.2-482c145.4-143.5,281.2-229.5,482-302.2l139.6-51.6H5000h3911.2l139.6,51.6c200.8,72.7,336.6,158.7,482,302.2c143.4,145.3,229.5,281.2,302.2,482l51.6,139.6l5.7,833.9l5.7,833.9l-225.7,216.1c-654.1,629.2-1164.7,939.1-1755.7,1061.5C7744.5-814.9,7354.4-797.7,7264.5-820.7z"/></g></g>
</svg>