<?xml version="1.0" encoding="utf-8"?>
<!-- Svg Vector Icons : http://www.onlinewebfonts.com/icon -->
<!DOCTYPE svg PUBLIC "-//W3C//DTD SVG 1.1//EN" "http://www.w3.org/Graphics/SVG/1.1/DTD/svg11.dtd">
<svg version="1.1" xmlns="http://www.w3.org/2000/svg" xmlns:xlink="http://www.w3.org/1999/xlink" x="0px" y="0px" viewBox="0 0 1000 1000" enable-background="new 0 0 1000 1000" xml:space="preserve">
<metadata> Svg Vector Icons : http://www.onlinewebfonts.com/icon </metadata>
<g><path d="M500,10C229.4,10,10,229.4,10,500c0,270.6,219.4,490,490,490c270.6,0,490-219.4,490-490C990,229.4,770.6,10,500,10z M673.4,623.5c13.8,13.8,13.8,36.1,0,49.9c-6.9,6.9-15.9,10.3-25,10.3c-9,0-18.1-3.4-25-10.3L500,549.9L376.5,673.4c-6.9,6.9-15.9,10.3-25,10.3c-9,0-18.1-3.4-25-10.3c-13.8-13.8-13.8-36.1,0-49.9L450.1,500L326.6,376.5c-13.8-13.8-13.8-36.1,0-49.9c13.8-13.8,36.1-13.8,49.9,0L500,450.1l123.5-123.5c13.8-13.8,36.1-13.8,49.9,0c13.8,13.8,13.8,36.1,0,49.9L549.9,500L673.4,623.5z"/></g>
</svg>