<?xml version="1.0" encoding="utf-8"?>
<!-- Svg Vector Icons : http://www.onlinewebfonts.com/icon -->
<!DOCTYPE svg PUBLIC "-//W3C//DTD SVG 1.1//EN" "http://www.w3.org/Graphics/SVG/1.1/DTD/svg11.dtd">
<svg version="1.1" xmlns="http://www.w3.org/2000/svg" xmlns:xlink="http://www.w3.org/1999/xlink" x="0px" y="0px" viewBox="0 0 1000 1000" enable-background="new 0 0 1000 1000" xml:space="preserve">
<metadata> Svg Vector Icons : http://www.onlinewebfonts.com/icon </metadata>
<g><g transform="translate(0.000000,486.000000) scale(0.100000,-0.100000)"><path d="M3250.9,4486.2c-251.7-50-493.8-192.1-687.8-405.4c-105.7-113.4-159.5-203.7-230.6-376.6c-26.9-65.3-48-67.2-405.4-21.1c-215.2,25-286.3,26.9-428.5,7.7c-297.8-38.4-534.1-151.8-768.5-367c-234.4-213.3-422.7-518.8-474.6-764.7c-30.7-146-26.9-432.3,9.6-578.3c38.4-163.3,192.1-478.4,305.5-626.3l86.5-115.3l-63.4-46.1c-109.5-82.6-276.7-267.1-345.8-380.4C142.3,637.9,100,489.9,100,292c0-478.4,265.1-816.5,853-1085.5c197.9-90.3,224.8-98,363.1-99.9h147.9v-63.4c0-34.6-32.7-155.6-71.1-269c-63.4-186.4-71.1-224.8-71.1-407.3c0-338.2,94.1-570.6,267.1-653.2c92.2-44.2,124.9-44.2,367-7.7l76.8,11.5l34.6-90.3c86.5-222.9,424.6-582.1,707-749.3c88.4-51.9,211.3-132.6,274.7-180.6c163.3-122.9,559.1-524.5,806.9-818.5c328.5-388.1,401.6-461.1,549.5-538c182.5-96.1,349.7-132.6,603.3-132.6c178.7-1.9,238.3,7.7,380.4,51.9c317,98,359.3,130.6,701.3,541.8c318.9,382.3,780.1,839.6,964.5,958.7c315.1,203.6,361.2,238.2,530.3,405.4c190.2,188.3,363.1,420.8,382.3,513c13.4,55.7,17.3,57.6,84.5,46.1c276.7-51.9,384.3-32.7,489.9,84.5c105.7,117.2,155.6,303.6,153.7,576.4c0,205.6-5.8,234.4-71.1,409.2c-44.2,115.3-71.1,222.9-71.1,274.7v86.5l73-15.4c132.6-28.8,220.9-15.4,395.8,61.5C9454.8-609,9748.7-330.4,9858.2-5.8c55.7,165.2,55.7,422.7,0,587.9c-73,215.2-255.5,461.1-453.4,611l-63.4,46.1l86.5,115.3c113.4,147.9,267.1,463,305.5,626.3c38.4,159.5,40.3,455.3,1.9,603.3c-113.4,436.1-495.7,864.6-922.2,1029.8c-222.9,86.5-434.2,105.7-741.6,69.2c-357.4-46.1-378.5-44.2-405.4,21.1c-103.7,255.5-265.1,455.4-482.2,595.6c-395.8,259.4-810.8,278.6-1262.3,55.7c-374.6-182.5-584.1-511.1-584.1-916.5c0-90.3,7.7-196,15.4-234.4l13.4-73h-367c-199.8,0-365,5.8-365,15.4c0,7.7,9.6,76.9,19.2,153.7c74.9,580.2-301.6,1050.9-945.3,1183.5C3535.3,4520.8,3421.9,4520.8,3250.9,4486.2z M5249.1,2795.5c367-26.9,770.4-134.5,1087.4-288.2c851.1-411.2,1187.4-1243.1,870.4-2153.8c-48-140.2-61.5-211.3-69.2-391.9c-15.4-320.8,21.1-482.2,213.3-970.2c182.5-459.2,220.9-589.8,236.3-806.9c13.4-188.3-15.4-332.4-94.2-491.9c-78.8-157.5-391.9-482.2-774.3-801.2c-409.2-342-507.2-440-726.2-733.9c-382.3-514.9-605.2-659-1008.7-657.1c-436.1,1.9-682.1,172.9-1060.6,730.1c-124.9,184.5-213.3,270.9-682.1,668.6c-126.8,107.6-336.2,305.5-466.9,438.1c-196,201.7-249.8,269-305.5,388.1c-61.5,128.7-71.1,169.1-78.8,330.5c-11.5,249.8,32.7,430.4,220.9,897.2c174.8,438,213.3,574.5,228.6,826.2c15.4,222.9-11.5,420.7-78.8,609c-101.8,282.4-134.5,689.7-78.8,958.7c140.3,660.9,659,1139.3,1462.1,1348.7c276.7,73,720.5,130.6,883.8,117.2C5060.8,2808.9,5158.7,2801.2,5249.1,2795.5z"/><path d="M3683.2,712.8c-155.6-73-240.2-213.3-240.2-399.6c1.9-255.5,174.8-428.4,432.3-428.4S4307.6,59.6,4307.6,317c0,190.2-92.2,334.3-253.6,401.5C3956,760.8,3779.3,757,3683.2,712.8z M4000.2,482.3c69.2-48,117.2-155.6,103.8-230.6c-15.4-76.9-101.8-165.2-174.8-180.6c-174.8-34.6-332.4,132.6-272.8,288.2C3715.9,516.8,3869.6,570.6,4000.2,482.3z"/><path d="M6161.7,712.8c-155.6-73-240.2-213.3-240.2-399.6c1.9-253.6,176.8-428.4,432.3-428.4c259.4,0,432.3,172.9,432.3,432.3c0,190.2-92.2,334.3-253.6,401.5C6434.5,760.8,6257.7,757,6161.7,712.8z M6472.9,488c196-126.8,113.3-416.9-119.1-416.9c-101.8,0-171,48-211.3,144.1C6061.8,418.8,6288.5,607.1,6472.9,488z"/><path d="M4764.9-299.7C4273-418.8,3944.5-897.2,4015.6-1391c38.4-269,174.8-497.6,392-657.1c343.9-251.7,822.3-251.7,1168.1,3.8c288.2,211.3,443.8,593.7,384.3,943.4C5865.8-539.9,5308.6-167.1,4764.9-299.7z"/><path d="M3731.2-2632.1c0-11.5,67.2-88.4,149.9-171c328.5-328.5,739.7-482.2,1233.5-457.3c428.4,21.2,770.4,155.6,1031.7,409.2c134.5,128.7,144.1,142.2,92.2,132.6c-384.3-73-1394.9-111.4-1806-67.2c-244,25-539.9,90.3-641.7,142.2C3754.3-2624.5,3731.2-2620.6,3731.2-2632.1z"/></g></g>
</svg>