<?xml version="1.0" encoding="utf-8"?>
<!-- Svg Vector Icons : http://www.onlinewebfonts.com/icon -->
<!DOCTYPE svg PUBLIC "-//W3C//DTD SVG 1.1//EN" "http://www.w3.org/Graphics/SVG/1.1/DTD/svg11.dtd">
<svg version="1.1" xmlns="http://www.w3.org/2000/svg" xmlns:xlink="http://www.w3.org/1999/xlink" x="0px" y="0px" viewBox="0 0 1000 1000" enable-background="new 0 0 1000 1000" xml:space="preserve">
<metadata> Svg Vector Icons : http://www.onlinewebfonts.com/icon </metadata>
<g><g transform="translate(0.000000,511.000000) scale(0.100000,-0.100000)"><path d="M972.3,4972.7c-375.2-89-710.1-402.7-824.5-769.4c-29.7-99.6-42.4-199.2-42.4-345.5c0-337,114.5-599.8,364.6-833c464.2-428.2,1182.7-398.5,1608.7,67.8c199.2,218.3,296.7,472.7,296.7,775.8c0,438.8-248,833-642.2,1019.5C1481,5008.7,1228.8,5036.3,972.3,4972.7z"/><path d="M4791.8,4991.7c-125.1-21.2-324.3-99.6-438.8-173.8c-606.2-392.1-693.1-1250.5-178-1763.5c239.5-237.4,557.5-354,900.8-330.7c987.7,70,1432.9,1248.4,735.5,1945.8c-152.6,152.6-368.8,271.3-570.1,313.7C5133.1,5006.6,4902,5010.8,4791.8,4991.7z"/><path d="M8486.2,4976.9c-303.1-76.3-601.9-309.5-741.8-576.5c-387.9-737.6,103.9-1619.4,936.9-1676.6c561.7-38.2,1068.3,354,1187,915.7c17,82.7,31.8,182.3,31.8,222.6c0,133.5-61.5,368.8-135.7,519.3c-125,252.2-347.6,449.4-621,553.2C8967.4,5002.4,8657.9,5021.4,8486.2,4976.9z"/><path d="M4749.4,1242.2c-407-86.9-773.7-438.8-879.6-845.7c-67.8-265-29.7-574.4,99.6-824.5c93.3-175.9,332.8-411.2,506.6-498.1c144.1-70,377.3-129.3,517.2-129.3c288.3,0,589.2,129.3,807.5,347.6c235.3,235.3,347.6,498.1,347.6,818.2c0,317.9-110.2,574.4-349.7,818.2c-169.6,171.7-341.3,267.1-572.3,315.8C5046.2,1282.5,4929.6,1282.5,4749.4,1242.2z"/><path d="M1061.4,1240.1c-317.9-53-650.7-281.9-809.7-557.4C99.1,422,58.8,55.3,147.8-230.9c175.9-563.8,775.8-907.2,1345.9-773.6c409.1,97.5,744,419.7,850,820.3c42.4,154.7,40.3,449.3-2.1,593.5c-86.9,290.4-307.3,570.2-553.2,703.7C1587,1221,1275.4,1276.1,1061.4,1240.1z"/><path d="M8462.9,1212.5c-207.7-55.1-368.8-148.4-523.5-305.2c-445.1-451.5-440.9-1159.4,8.5-1602.4c245.9-243.8,529.9-351.8,871.1-332.8c686.7,40.3,1191.2,686.8,1051.3,1348.1c-48.8,231-135.6,398.5-296.7,568.1C9279,1202,8874.1,1318.5,8462.9,1212.5z"/><path d="M1046.5-2517.9c-356.1-63.6-688.9-317.9-839.3-640.1c-307.3-663.4,74.2-1443.4,788.5-1606.6c154.7-36,466.3-17,625.3,40.3c317.9,112.3,578.6,373,695.2,691c67.8,190.8,78.4,515,21.2,703.7c-112.3,362.4-373,640.1-722.8,760.9C1451.4-2511.6,1203.4-2490.4,1046.5-2517.9z"/><path d="M4753.7-2528.5c-521.4-118.7-879.6-529.9-909.3-1049.2c-19.1-343.4,89-629.5,332.8-873.3c245.9-245.9,521.4-347.6,890.2-330.7c233.2,12.7,398.5,63.6,570.2,178c334.9,222.6,510.8,551.1,510.8,951.7c0,502.3-294.6,919.9-763,1083.1C5200.9-2503.1,4933.8-2486.1,4753.7-2528.5z"/><path d="M8543.5-2520c-63.6-10.6-197.1-57.2-294.6-106c-398.5-195-638-576.5-638-1015.3c0-633.8,506.6-1144.6,1140.3-1144.6c443,0,824.5,239.5,1019.5,638c55.1,112.4,95.4,231,108.1,326.4c69.9,451.5-142,905.1-540.5,1153.1C9130.6-2537,8797.8-2475.5,8543.5-2520z"/></g></g>
</svg>