<?xml version="1.0" encoding="utf-8"?>
<!-- Svg Vector Icons : http://www.onlinewebfonts.com/icon -->
<!DOCTYPE svg PUBLIC "-//W3C//DTD SVG 1.1//EN" "http://www.w3.org/Graphics/SVG/1.1/DTD/svg11.dtd">
<svg version="1.1" xmlns="http://www.w3.org/2000/svg" xmlns:xlink="http://www.w3.org/1999/xlink" x="0px" y="0px" viewBox="0 0 1000 1000" enable-background="new 0 0 1000 1000" xml:space="preserve">
<metadata> Svg Vector Icons : http://www.onlinewebfonts.com/icon </metadata>
<g><path d="M445.6,483.1c0,28.1,22.6,50.7,50.4,50.7c27.7,0,50.4-22.6,50.4-50.7c0-28.1-22.6-50.7-50.4-50.7C468.3,432.4,445.6,455.1,445.6,483.1z M399,621.3c6.4,4.7,12.5,8.8,19.3,12.2l-4.1,252.5c0,0,6.8,19.6,26.4,19.6c19.6,0,38.9-13.5,38.9-13.5V762.6h41.2L512.9,888c0,0,2.7,17.6,22,17.6c19.6,0,39.2-19.3,39.2-19.3V625c28.1-11.5,52-32.8,69.6-56.8c15.2,6.8,31.1,4.7,34.5-10.5c-14.5,60.5-29.4,115.9-29.4,115.9s5.1,26.7,29.4,29.1c24.7,2.4,34.5,2.4,34.5,2.4v140.3c0,28.7,24.7,60.2,54.1,60.2h58.8c29.4,0,58.8-33.8,58.8-62.9V702.8h29.4c29.4,0,29.4-29.1,29.4-29.1s-42.6-162.2-27.7-113.9c14.5,48.3,114.2,85.5,57.1-59.8c-26.7-67.6-58.8-145-58.8-145s-58.8-57.8-117.6-57.8c-58.8,0-117.9,57.8-117.9,57.8s-18.6,55.1-40.2,105.4c-12.8,5.1-21.6,17.6-21.6,17.6C612.6,542.9,568,581.8,496,581.8c-43.9,0-77.7-14.5-98.3-40.6c-18.6-55.8-47-131.1-52.4-157.1c-6.1-28.4-30.4-86.9-90.6-86.9H134c-60.5,0-90.6,57.8-90.6,86.9c0,29.1-33.5,149.7-33.5,178.8c0,18.3,43.6,36.5,63.9,36.5c12.5,0,25-134.8,35.8-134.8l2.7,376.8c0,29.1,21.6,64.2,51.7,64.2h60.5c30.1,0,51-29.7,51-58.8V456.4c6.4,0,51.7,106.1,55.4,111.2C341.5,582.5,381.8,618.3,399,621.3z M881.6,178.9c0-46.6-39.2-84.5-87.2-84.5c-48.3,0-87.2,37.9-87.2,84.5c0,46.6,38.9,84.5,87.2,84.5C842.4,263.4,881.6,225.6,881.6,178.9z M289.5,178.9c0-46.6-40.2-84.5-89.6-84.5c-49.3,0-89.2,37.9-89.2,84.5c0,46.6,39.9,84.5,89.2,84.5C249.3,263.4,289.5,225.6,289.5,178.9z"/></g>
</svg>