<?xml version="1.0" encoding="utf-8"?>
<!-- Svg Vector Icons : http://www.onlinewebfonts.com/icon -->
<!DOCTYPE svg PUBLIC "-//W3C//DTD SVG 1.1//EN" "http://www.w3.org/Graphics/SVG/1.1/DTD/svg11.dtd">
<svg version="1.1" xmlns="http://www.w3.org/2000/svg" xmlns:xlink="http://www.w3.org/1999/xlink" x="0px" y="0px" viewBox="0 0 1000 1000" enable-background="new 0 0 1000 1000" xml:space="preserve">
<metadata> Svg Vector Icons : http://www.onlinewebfonts.com/icon </metadata>
<g><g transform="translate(0.000000,511.000000) scale(0.100000,-0.100000)"><path d="M4692.4,4999.6c-753.6-75-1234.2-355.7-1470.7-855.5c-138.4-290.3-194.2-694-171.1-1220.8l13.5-292.2l-51.9-59.6c-88.4-105.7-115.3-244.2-101.9-538.3c17.3-397.9,84.6-736.3,173-867c23.1-36.5,88.4-90.4,142.3-123c94.2-55.7,98-61.5,111.5-159.6c59.6-472.9,394.1-1032.4,795.9-1328.4c150-111.5,401.8-234.5,559.4-273c173-42.3,501.7-34.6,672.9,19.2c511.4,157.6,951.6,590.2,1182.3,1161.2c57.7,144.2,125,403.7,125,488.3c0,21.1,36.5,55.7,96.1,88.4c174.9,96.1,234.6,240.3,298,711.3c55.8,426.8,30.7,690.2-76.9,817l-48.1,57.7v440.3c0,488.3-23.1,644-128.8,834.3c-67.3,123-224.9,280.7-367.2,365.3c-92.3,53.8-119.2,82.7-165.3,176.9c-111.5,230.7-361.4,409.5-690.2,492.1C5340.3,4999.6,4957.7,5026.6,4692.4,4999.6z M5315.3,3494.4c236.5-80.8,411.4-236.5,519.1-461.4c55.7-115.4,59.6-140.3,59.6-326.8c0-169.2-7.7-217.2-44.2-296.1c-63.4-140.3-167.3-267.2-309.5-380.6c-69.2-53.8-159.6-128.8-198-167.3c-69.2-63.4-73-73.1-73-188.4v-121.1H5000h-269.1V1693c0,269.1,90.4,447.9,315.3,626.7c75,59.6,176.9,148,226.8,196.1c84.6,80.7,92.3,96.1,92.3,180.7c0,186.5-144.2,307.6-365.3,307.6c-230.7,0-365.3-121.1-365.3-324.9v-107.7h-271.1h-271.1l7.7,169.2c9.6,194.2,73,357.6,199.9,501.8c117.3,134.6,349.9,261.5,546,298C4944.3,3557.8,5205.7,3532.8,5315.3,3494.4z M5080.8,1360.5c92.3-26.9,186.5-105.7,219.2-186.5c132.7-315.3-251.8-607.5-505.6-384.5c-199.9,174.9-144.2,472.9,103.8,561.4C4988.5,1383.5,4992.3,1383.5,5080.8,1360.5z"/><path d="M3327.5-450.5C2993-660,2612.3-804.2,2039.4-936.9c-459.5-109.6-555.6-144.2-642.1-240.3c-190.3-211.5-355.6-742.1-480.6-1557.2l-50-317.2l92.3-92.3c167.3-173,569-496,840.1-676.7C3960-5260.5,6816.7-5081.7,8777.6-3382.2c117.3,100,244.2,215.3,282.6,257.6l73,75l-48,301.8c-130.7,838.2-290.3,1357.2-478.7,1566.8c-90.3,100-182.6,134.6-645.9,244.2c-574.8,134.6-922.8,265.3-1272.7,476.8c-155.7,96.1-234.5,111.5-261.4,57.7c-9.6-19.2-19.2-90.4-21.2-159.6c-9.6-305.7-230.7-1068.9-519.1-1787.9c-123-305.7-207.6-474.8-219.2-442.2c-5.8,15.4-76.9,244.2-159.6,507.5c-80.7,265.3-159.6,509.5-175,544.1c-13.5,36.5-21.1,75-13.5,86.5c7.7,11.5,57.7,82.7,113.4,159.6c53.8,76.9,109.6,165.3,123,198c36.5,86.5,11.5,184.6-67.3,273c-96.1,105.7-157.6,113.4-319.1,40.4c-71.1-32.7-148-59.6-171.1-59.6c-21.1,0-98,26.9-171.1,57.7c-73,32.7-149.9,57.7-171.1,57.7c-23.1,0-78.8-34.6-126.9-78.8c-148-136.5-140.3-259.5,38.4-494.1c57.7-76.9,105.7-155.7,105.7-174.9c0-19.2-17.3-84.6-38.4-148c-23.1-61.5-96.1-299.9-165.3-526.7c-69.2-226.8-130.7-426.8-134.6-442.2c-13.5-36.5-38.5,7.7-163.4,303.8c-299.9,697.8-565.2,1586-582.5,1943.6c-1.9,71.1-11.5,140.4-19.2,151.9C3542.8-350.5,3452.4-371.7,3327.5-450.5z"/></g></g>
</svg>