<?xml version="1.0" encoding="utf-8"?>
<!-- Svg Vector Icons : http://www.onlinewebfonts.com/icon -->
<!DOCTYPE svg PUBLIC "-//W3C//DTD SVG 1.1//EN" "http://www.w3.org/Graphics/SVG/1.1/DTD/svg11.dtd">
<svg version="1.1" xmlns="http://www.w3.org/2000/svg" xmlns:xlink="http://www.w3.org/1999/xlink" x="0px" y="0px" viewBox="0 0 1000 1000" enable-background="new 0 0 1000 1000" xml:space="preserve">
<metadata> Svg Vector Icons : http://www.onlinewebfonts.com/icon </metadata>
<g><g transform="translate(0.000000,511.000000) scale(0.100000,-0.100000)"><path d="M813.7,4718.7c-34.1-17.1-210.9-176.8-387.7-357.9l-326-328.1v-117.2v-115l1985.6-1985.6L4073.3-172.8L3530-716.1l-543.3-543.3H1787.3c-1318.7,0-1312.3,0-1378.4-127.8C364.2-1474.5,100-2544,100-2639.9c0-100.1,61.8-189.6,161.9-230.1c57.5-23.4,328.1-29.8,1465.7-29.8c918.2,0,1414.6,8.5,1455.1,21.3c32,12.8,455.9,417.6,939.5,901.2l877.7,877.8l879.9-877.8c481.5-483.6,905.4-888.4,937.4-901.2c40.5-12.8,536.9-21.3,1455.1-21.3c1137.7,0,1408.2,6.4,1465.8,29.8c98,40.5,161.9,130,161.9,228c0,98-262,1163.2-306.8,1252.7c-68.2,132.1-57.5,129.9-1380.5,129.9H7013.3L6470-716.1l-543.3,543.3L7891,1793.6c1078,1080.1,1972.8,1985.6,1985.6,2011.1c12.8,25.6,23.4,87.3,23.4,136.3c0,85.2-10.7,100.1-302.5,400.5c-336.6,343-441,419.7-553.9,396.3c-57.5-12.8-434.6-379.2-2058-1998.3L5000,753.9L3029.3,2724.6C1947.1,3809,1033.1,4705.9,1001.2,4720.8C924.5,4754.9,892.5,4752.7,813.7,4718.7z M3849.6,1139.5c2467-2462.8,2940-2929.3,3001.8-2940c38.3-6.4,573.1-12.8,1186.6-12.8h1114.2l21.3-78.8c49-187.5,108.7-430.3,108.7-441c0-6.4-511.3-12.8-1135.5-12.8H7013.3L3881.5,785.9L751.9,3915.5l72.4,76.7c40.5,40.5,76.7,74.6,83.1,74.6C913.8,4066.7,2239,2750.1,3849.6,1139.5z M9175.7,3992.2l72.4-76.7L7407.4,2074.8C6393.3,1060.7,5556,232,5543.3,232c-10.7,0-51.1,29.8-89.5,68.2l-72.4,68.2l1849.2,1849.2c1016.2,1016.2,1853.5,1849.2,1862,1849.2C9099,4066.7,9135.2,4032.6,9175.7,3992.2z M3802.7-1529.9l-816-816H1853.3c-624.2,0-1135.5,6.4-1135.5,12.8c0,10.6,59.6,253.5,108.7,441l21.3,78.8H1962c613.6,0,1148.3,6.4,1186.7,12.8c59.6,12.8,189.6,129.9,690.3,628.5l617.8,613.6l81-78.8l78.8-76.7L3802.7-1529.9z"/><path d="M4697.5-2933.9c-313.2-74.6-624.2-306.8-730.7-545.4c-151.3-334.5,38.3-707.3,462.3-909.7c217.3-102.3,362.2-136.3,571-136.3c206.7,0,353.6,34.1,566.7,136.3c426.1,202.4,617.8,575.2,466.6,909.7c-110.8,245-400.5,458-745.7,547.5C5134.2-2893.4,4861.5-2893.4,4697.5-2933.9z M5176.8-3453.7c283.3-40.5,415.4-166.2,347.3-330.2c-17-40.5-61.8-91.6-100.1-115c-100.1-61.8-317.4-95.9-519.8-81c-343,23.4-507,155.5-428.2,343C4539.8-3483.5,4838.1-3404.7,5176.8-3453.7z"/></g></g>
</svg>