<?xml version="1.0" encoding="utf-8"?>
<!-- Svg Vector Icons : http://www.onlinewebfonts.com/icon -->
<!DOCTYPE svg PUBLIC "-//W3C//DTD SVG 1.1//EN" "http://www.w3.org/Graphics/SVG/1.1/DTD/svg11.dtd">
<svg version="1.1" xmlns="http://www.w3.org/2000/svg" xmlns:xlink="http://www.w3.org/1999/xlink" x="0px" y="0px" viewBox="0 0 1000 1000" enable-background="new 0 0 1000 1000" xml:space="preserve">
<metadata> Svg Vector Icons : http://www.onlinewebfonts.com/icon </metadata>
<g><g transform="translate(0.000000,512.000000) scale(0.100000,-0.100000)"><path d="M4243.3,5008.1c-191.7-47.9-381.5-214.7-446.7-391.1c-23-61.3-42.2-122.7-42.2-136.1c0-13.4-80.5-57.5-176.4-97.8c-306.7-124.6-663.3-331.7-906.8-525.3c-51.8-44.1-86.3-57.5-115-49.9c-178.3,57.5-272.2,69-379.6,49.9c-63.3-11.5-151.5-38.3-197.5-61.3c-163-78.6-230.1-170.6-525.3-724.7c-354.7-667.2-362.3-686.3-364.2-858.9c0-162.9,44.1-299.1,136.1-412.2l59.4-74.8l-23-195.5c-15.3-134.2-21.1-532.9-15.3-1278.7l5.7-1083.2l55.6-162.9c92-276.1,276.1-613.5,435.2-795.6c97.8-111.2,266.5-210.9,473.5-279.9c306.7-101.6,398.8-157.2,463.9-285.7c53.7-105.4,80.5-256.9,84.4-452.4l1.9-180.2h2223.8h2223.8l1.9,178.3c3.8,293.3,63.3,479.3,189.8,584.7c42.2,34.5,155.3,84.4,283.7,128.4c118.8,38.3,258.8,93.9,310.6,120.8c260.7,136.1,556,584.7,694,1050.6c28.8,99.7,34.5,233.9,40.3,1186.7c3.8,711.3-1.9,1127.2-15.3,1234.6l-21.1,161l59.4,74.8c128.4,159.1,182.1,381.5,136.1,565.5c-34.5,134.2-607.7,1205.9-701.7,1307.5c-155.3,168.7-400.7,241.5-628.8,184l-128.5-32.6l-120.8,95.8c-281.8,222.4-594.3,404.5-914.5,533c-209,82.4-230.1,95.8-230.1,139.9c0,59.4-97.8,228.1-178.3,310.6c-44.1,44.1-128.4,103.5-186,130.4l-105.4,49.8l-699.7,3.8C4615.2,5021.5,4275.8,5015.8,4243.3,5008.1z M5715.6,4642c197.5-134.2,189.8-433.3-15.3-550.2c-76.7-44.1-80.5-44.1-749.6-40.3l-672.9,5.8l-69,53.7c-92,69-132.3,151.5-132.3,262.6c0,141.9,63.3,237.7,195.5,295.2c57.5,24.9,170.6,28.8,720.8,24.9l653.7-3.8L5715.6,4642z M2452.7,3482.1c84.4-53.7,139.9-162.9,139.9-278c0-70.9-32.6-145.7-186-442.8c-101.6-195.5-186-362.3-186-370c0-5.8,32.6,9.6,74.8,36.4c40.3,26.8,120.8,69,176.4,92l103.5,42.2l2384.8,5.7l2384.9,3.8l84.4-40.3c113.1-55.6,255-201.3,329.7-343.2c34.5-63.3,84.3-199.4,111.2-301c47.9-180.2,49.8-214.7,59.4-832c7.7-694-1.9-841.6-80.5-1033.3C7809-76,7124.6-1101.6,6687.5-1722.7c-235.8-331.7-498.4-542.5-743.8-594.3c-59.4-13.4-414.1-19.2-993.1-15.3c-1002.6,5.8-977.7,3.8-1226.9,151.5c-251.1,147.6-345.1,262.6-1029.5,1261.4C2341.5-403.8,2029,60.1,2004.1,111.9c-101.6,197.5-109.3,274.1-109.3,975.8c0,467.8,7.7,680.6,24.9,757.2l24.9,105.4l-67.1-36.4c-153.4-78.6-371.9,0-437.1,157.2c-59.4,141.8-34.5,216.6,270.3,787.9c155.3,289.5,306.7,552.1,335.5,580.9C2157.5,3551.2,2316.6,3568.4,2452.7,3482.1z M7878,3443.8c80.5-42.2,120.8-107.3,419.8-671c308.6-582.8,324-628.8,245.4-774.5c-53.7-99.7-174.4-174.5-279.9-174.5c-90.1,0-222.4,65.2-264.6,130.4c-88.2,132.3-586.6,1094.7-596.2,1148.3c-24.9,149.5,49.9,287.6,195.5,354.7C7682.5,3495.6,7784.1,3491.7,7878,3443.8z"/><path d="M2619.5,2218.8c-132.3-34.5-182.1-76.7-247.3-209c-32.6-65.2-78.6-143.8-101.6-176.4c-38.3-55.6-40.3-74.8-40.3-747.7c0-674.8,1.9-692.1,42.2-784.1c36.4-74.8,534.9-822.4,753.4-1127.3l51.8-70.9l274.1,320.1c149.5,176.4,291.4,329.8,314.4,343.2c28.8,17.3,197.5,23,602,24.9H4828v575.1V942h-456.3c-498.4,0-586.6,13.4-786,113.1c-140,70.9-274.2,182.1-366.2,302.9c-38.3,51.8-164.9,268.4-278,481.2c-113.1,212.8-212.8,391.1-218.5,394.9C2715.3,2237.9,2669.3,2230.3,2619.5,2218.8z"/><path d="M3102.6,2237.9c0-5.8,78.6-153.4,174.5-331.7c197.5-366.2,287.6-473.5,477.3-567.5l122.7-61.3l475.4-5.8l475.4-5.7v488.9v490.8h-862.7C3491.8,2245.6,3102.6,2241.8,3102.6,2237.9z"/><path d="M5153.9,1754.9V1266l532.9,5.7l531,5.8l115,55.6c130.3,65.2,276.1,201.3,331.6,310.6c30.7,63.3,214.7,569.4,214.7,594.3c0,3.8-387.3,7.7-862.7,7.7h-862.7V1754.9z"/><path d="M7118.9,1925.5c-61.4-178.3-130.4-362.3-155.3-410.2c-109.3-218.6-335.5-419.9-580.9-513.8c-122.7-47.9-139.9-49.9-676.7-55.6l-552.1-5.8V365v-573.2h613.5c387.3,0,626.9-7.7,655.7-21.1c24.9-9.6,138-153.4,255-316.3c115-161,210.9-295.2,212.8-295.2c13.4,0,596.2,866.5,632.6,939.4c78.6,159.1,88.2,276.1,78.6,950.9c-7.7,672.9-17.3,738.1-117,958.5c-49.8,107.4-170.6,237.7-222.4,237.7C7237.7,2245.6,7203.2,2170.9,7118.9,1925.5z"/><path d="M3545.4-850.5c-147.6-172.5-270.3-320.2-270.3-325.9c0-5.7,72.8-116.9,163-249.2c187.9-272.2,343.2-423.7,525.3-513.8l124.6-61.4l370-5.7l370-7.7v740v740h-506.1h-504.2L3545.4-850.5z"/><path d="M5153.9-1274.1v-740l379.6,7.7c366.2,5.7,379.6,7.7,473.5,57.5c138,72.8,306.7,256.9,508,550.2c132.3,193.6,172.5,264.6,159.1,289.5c-7.7,17.3-101.6,153.4-207.1,302.9l-191.7,270.3l-559.8,1.9h-561.7V-1274.1z"/><path d="M2805.4-3375.3c7.7-34.5,26.8-109.3,44.1-162.9l30.7-101.6h2112.6h2112.6l40.3,149.5c23,82.4,40.2,155.3,40.2,162.9c0,7.7-989.2,13.4-2197,13.4H2792L2805.4-3375.3z"/><path d="M3085.3-4007.9c38.3-72.8,287.6-310.6,417.9-396.8c235.8-159.1,542.5-276.1,893.4-339.3c270.3-47.9,918.3-47.9,1188.6,0c350.8,63.3,657.6,180.2,893.4,337.4c126.5,84.4,379.6,327.8,417.9,400.7l23,40.3H4990.9H3062.3L3085.3-4007.9z"/></g></g>
</svg>