<?xml version="1.0" encoding="utf-8"?>
<!-- Svg Vector Icons : http://www.onlinewebfonts.com/icon -->
<!DOCTYPE svg PUBLIC "-//W3C//DTD SVG 1.1//EN" "http://www.w3.org/Graphics/SVG/1.1/DTD/svg11.dtd">
<svg version="1.1" xmlns="http://www.w3.org/2000/svg" xmlns:xlink="http://www.w3.org/1999/xlink" x="0px" y="0px" viewBox="0 0 1000 1000" enable-background="new 0 0 1000 1000" xml:space="preserve">
<metadata> Svg Vector Icons : http://www.onlinewebfonts.com/icon </metadata>
<g><path d="M847.1,459.2h-61.3V275.4C785.8,128.8,667,10,520.4,10h-40.8C333,10,214.2,128.8,214.2,275.4v183.7h-61.3c-56.4,0-102.1,45.7-102.1,102.1v326.7c0,56.4,45.7,102.1,102.1,102.1h694.2c56.4,0,102.1-45.7,102.1-102.1V561.2C949.2,504.9,903.4,459.2,847.1,459.2z M540.8,778.9v88.7c0,22.5-18.3,40.8-40.8,40.8c-22.5,0-40.8-18.3-40.8-40.8v-88.7c-47.6-16.8-81.7-62.2-81.7-115.5c0-67.7,54.9-122.5,122.5-122.5c67.7,0,122.5,54.8,122.5,122.5C622.5,716.6,588.4,762,540.8,778.9z M683.7,459.2H316.3V275.4c0-90.2,73.1-163.3,163.3-163.3h40.8c90.2,0,163.3,73.1,163.3,163.3V459.2L683.7,459.2z"/></g>
</svg>