<?xml version="1.0" encoding="utf-8"?>
<!-- Svg Vector Icons : http://www.onlinewebfonts.com/icon -->
<!DOCTYPE svg PUBLIC "-//W3C//DTD SVG 1.1//EN" "http://www.w3.org/Graphics/SVG/1.1/DTD/svg11.dtd">
<svg version="1.1" xmlns="http://www.w3.org/2000/svg" xmlns:xlink="http://www.w3.org/1999/xlink" x="0px" y="0px" viewBox="0 0 1000 1000" enable-background="new 0 0 1000 1000" xml:space="preserve">
<metadata> Svg Vector Icons : http://www.onlinewebfonts.com/icon </metadata>
<g><path d="M500,10C291,10,112.7,140.8,42.2,325H118c20.6-44.8,49.1-86.1,85-122c79.3-79.3,184.8-123,297-123c112.2,0,217.7,43.7,297,123c79.3,79.3,123,184.8,123,297c0,112.2-43.7,217.7-123,297c-79.3,79.3-184.8,123-297,123c-112.2,0-217.6-43.7-297-123c-35.9-35.9-64.5-77.2-85-122H42.2C112.7,859.2,291,990,500,990c270.6,0,490-219.4,490-490C990,229.4,770.6,10,500,10L500,10z"/><path d="M392.5,648.5L442,698l198-198L442,302l-49.5,49.5L506,465H10v70h496L392.5,648.5z"/></g>
</svg>