<?xml version="1.0" encoding="utf-8"?>
<!-- Svg Vector Icons : http://www.onlinewebfonts.com/icon -->
<!DOCTYPE svg PUBLIC "-//W3C//DTD SVG 1.1//EN" "http://www.w3.org/Graphics/SVG/1.1/DTD/svg11.dtd">
<svg version="1.1" xmlns="http://www.w3.org/2000/svg" xmlns:xlink="http://www.w3.org/1999/xlink" x="0px" y="0px" viewBox="0 0 1000 1000" enable-background="new 0 0 1000 1000" xml:space="preserve">
<metadata> Svg Vector Icons : http://www.onlinewebfonts.com/icon </metadata>
<g><g><g><path d="M170.5,204.5c3.7,2.5,7.9,4.2,12.4,4.9c1.1,0.2,2.4,0.1,3.5,0.2c0,11.6,2.7,26.2,14.7,34.4c3.7,2.5,7.8,4.2,12.4,4.9c17.6,3,42.2-6.7,75.6-29.8c93.1-64.2,105.4-80.8,116.2-95.5c1.2-1.6,2.3-3.1,3.5-4.7c9.6-12.2,9.4-32.2-0.6-45.6c-3.3-4.4-10.5-11.7-23.1-14.1c0.4-8.9-2.1-18.2-7.5-25.5c-5.5-7.4-22.1-23.1-56.7-9.4c-1,0.4-1.8,1.1-2.6,1.7c-11.1-7.1-23.8-12.2-37.7-14.5c-55.4-9.4-108,28-117.5,83.3c-2.9,17.3-1.3,34.4,4,49.9c-4.7,0.6-8.5,3.9-9.6,8.7C156.8,157.2,149.8,190.4,170.5,204.5z M214.1,225.1c-4.2-2.8-5-11.6-4.5-19.1c2.7-0.9,5.5-1.9,8.4-3.2c8.8,4.4,18.3,7.6,28.6,9.4c3,0.5,6.1,0.8,9.1,1.1C225.6,230.5,215.9,226.3,214.1,225.1z M352.7,127c-1.4,8.2-3.9,15.9-7.3,23.1c-15.6,12.2-37.4,28.3-69.2,50.2c-0.6,0.4-1.2,0.8-1.8,1.2c-8.4,1-17.1,0.9-25.9-0.6c-5.9-1-11.5-2.6-16.9-4.6c8.3-4.5,17.2-10,27-16.7c53.3-36.8,80-57.9,95.2-72C354.1,113.9,353.8,120.4,352.7,127z M364,128.9c1.9-10.8,1.9-21.5,0.3-31.9c4.6-5,7.6-9.1,10.5-13c0.6-0.8,1.3-1.7,1.9-2.5c5.1,0,10.1,1.2,13.2,5.5c4.1,5.5,3.9,14.1,1,17.7c-1.4,1.8-2.7,3.5-4,5.3c-4.5,6.2-9.7,13.2-24.6,26.1C363,133.7,363.6,131.4,364,128.9z M359.3,47.4c2.8,3.8,3.5,9,2.7,13.1c-2.9,0.8-6,1.7-9.3,3c-4.1-7.4-8.7-14.4-14.4-20.6C345.9,41.1,354.5,41.1,359.3,47.4z M341.8,66.6c1.2,2,1.9,4.2,2.9,6.3c-0.3,1.9-0.3,4,0.5,5.9c0.4,1.2,1.2,2.1,1.9,3c-11.6,12.7-35.2,33.1-101.6,78.9c-16.7,11.5-29,18.1-38.2,21.8c-5.5-4.4-10.3-9.4-14.6-14.9L341.8,66.6z M193.7,185.7c-0.4,0.3-0.8,0.6-1.2,0.9c-5.5,0.6-8.2-0.5-9.1-1.1c-3.9-2.6-4.8-10.4-4.5-17.4C183.1,174.5,188.1,180.4,193.7,185.7z"/><path d="M766,878.1L627.7,508.2c4.5-22.8-3.1-48.4-23-61.4l-31.9-85.4c24.9-0.2,51.9-16.1,56.1-41.8c9.9-60.7,13-142.5-53-174c-63.4-30.2-135.1,2.9-192,32.7c-8.2,4.3-14.5,9.6-19.1,15.6c-15.9,6.5-30.2,17-40,31.1c-8.4,4.1-16.3,10.6-22.7,19.8c-58.9,84.5-30.1,160.5,31.7,215.8c-0.3,28.8-2.2,57.8-5.9,87.3c-0.7,5.6-0.6,11.1,0.2,16.4c-71.7,92.7-138.9,189.5-220.9,273.3c-51.8,52.9,29.3,134.1,81.1,81.1c85.3-87.2,154.4-188.3,229.4-284.3c0.4,0,0.8,0,1.2-0.1c12.4,73.3-16.5,140.9-88.5,194.2c-58.8,43.5-1.6,143.2,57.9,99.1C520.7,829.6,569.1,691,512.9,546.7c21.1,4.2,41.7,6.4,60.6,6.2c13.4-0.1,24.4-4,33-10.3l125,381.3h149.2l28.7-45.9H766z M505.8,427.4c-1.8-56.7-9.7-113-23.3-169c4.6-1.8,9.3-3.5,14.1-5c1.9-0.6,17.6-4.1,18-4.7c1.5,0,3.4,0.1,5.4,0.2c0.1,0.3,0.1,0.6,0.2,0.9c0.2,3.1,0.3,6.3,0.3,9.4h-6.9l6.2,18.7c-0.4,3.8-0.9,7.5-1.5,11.2c-4.2,26,4.2,51.7,26.4,64.6l27.7,84.5C555.5,438.1,531.2,434.4,505.8,427.4z"/><path d="M543.1,938.4h110.7V990H543.1V938.4z"/></g></g><g></g><g></g><g></g><g></g><g></g><g></g><g></g><g></g><g></g><g></g><g></g><g></g><g></g><g></g><g></g></g>
</svg>