<?xml version="1.0" encoding="utf-8"?>
<!-- Svg Vector Icons : http://www.onlinewebfonts.com/icon -->
<!DOCTYPE svg PUBLIC "-//W3C//DTD SVG 1.1//EN" "http://www.w3.org/Graphics/SVG/1.1/DTD/svg11.dtd">
<svg version="1.1" xmlns="http://www.w3.org/2000/svg" xmlns:xlink="http://www.w3.org/1999/xlink" x="0px" y="0px" viewBox="0 0 1000 1000" enable-background="new 0 0 1000 1000" xml:space="preserve">
<metadata> Svg Vector Icons : http://www.onlinewebfonts.com/icon </metadata>
<g><g><g><path d="M965.2,809.6c-10.2-20.9-37.3-37.8-60.6-37.8H723.2c-11.6,0-26-8-32.2-17.8L541.8,515.9l220.8-362.3c14.7-24.1,9.5-43.7-11.6-43.7c-21.1,0-50.4,19.3-65.4,43.2L500,449.2L314.4,153.1c-15-23.9-44.3-43.3-65.4-43.2c-21.1,0.1-26.3,19.6-11.6,43.7l220.8,362.3L309,754c-6.2,9.8-20.6,17.8-32.2,17.8H95.4c-23.2,0-50.4,16.9-60.6,37.8l-20.9,42.7c-10.2,20.9,0.4,37.8,23.6,37.8h255.1c11.6,0,25.9-8,32-18L500,584.4l175.4,287.8c6.1,9.9,20.4,18,32,18h255.1c23.2,0,33.8-16.9,23.6-37.8L965.2,809.6z"/></g></g><g></g><g></g><g></g><g></g><g></g><g></g><g></g><g></g><g></g><g></g><g></g><g></g><g></g><g></g><g></g></g>
</svg>