<?xml version="1.0" encoding="utf-8"?>
<!-- Svg Vector Icons : http://www.onlinewebfonts.com/icon -->
<!DOCTYPE svg PUBLIC "-//W3C//DTD SVG 1.1//EN" "http://www.w3.org/Graphics/SVG/1.1/DTD/svg11.dtd">
<svg version="1.1" xmlns="http://www.w3.org/2000/svg" xmlns:xlink="http://www.w3.org/1999/xlink" x="0px" y="0px" viewBox="0 0 1000 1000" enable-background="new 0 0 1000 1000" xml:space="preserve">
<metadata> Svg Vector Icons : http://www.onlinewebfonts.com/icon </metadata>
<g><g transform="translate(0.000000,512.000000) scale(0.100000,-0.100000)"><path d="M4925.9,4997c-68.9-32.5-84.2-99.5-84.2-369.5V4371l-61.3-9.6c-34.5-5.8-135.9-15.3-225.9-21.1c-819.3-61.3-1721-434.6-2421.7-999.3C961.3,2395.4,321.9,886.9,457.8-617.8c80.4-882.5,444.1-1778.4,1005-2469.5c185.7-229.7,568.6-599.2,796.4-769.6c1259.6-945.7,2858.1-1179.2,4334.1-633.6c884.4,325.4,1686.5,962.9,2220.7,1767c361.8,545.6,616.4,1227.1,719.8,1933.5c38.3,254.6,34.5,940-7.6,1217.5C9411.2,1195.1,9103,1941.7,8657,2535.2c-162.7,214.4-233.6,243.1-344.6,143.6c-72.7-65.1-59.3-155.1,40.2-279.5c643.2-823.2,968.7-1933.5,871-2988.3c-147.4-1615.7-1209.9-3013.2-2727.9-3589.4c-499.7-189.5-928.5-266.1-1491.3-266.1c-428.8,0-677.7,28.7-1049.1,124.4c-564.7,145.5-1181.2,455.6-1611.9,807.9c-155.1,128.3-463.3,432.6-593.5,589.6C1217.8-2289,865.6-1442.9,785.2-600.5C678,484.9,1016.8,1599,1715.5,2464.3c721.7,895.9,1812.9,1474.1,2936.6,1556.4l189.5,15.3v-329.3v-327.4l-174.2-11.5c-493.9-36.4-1085.4-233.6-1544.9-518.8c-1280.7-794.5-1935.4-2310.6-1631-3782.8c287.2-1389.8,1384.1-2494.4,2766.2-2787.3c775.3-164.6,1575.5-68.9,2283.8,269.9c1005,482.4,1734.4,1403.2,1967.9,2488.7c164.6,765.7,70.8,1590.8-260.3,2283.8c-174.2,365.6-363.7,645.1-626,924.6c-130.2,137.8-151.2,151.2-216.3,151.2c-103.4,0-162.7-53.6-162.7-147.4c0-67,17.2-91.9,149.3-237.4c398.2-430.7,683.4-980.1,798.3-1533.4c84.2-411.6,93.8-813.6,28.7-1213.7c-231.6-1409-1357.3-2507.8-2777.7-2708.8c-218.2-32.5-658.5-32.5-876.8,0c-537.9,74.6-1070.1,292.9-1497,610.7c-229.7,170.4-562.8,509.2-719.8,731.3c-155.1,218.3-358,614.5-436.5,855.7c-287.2,872.9-199.1,1826.3,241.2,2616.9c524.5,938,1495.1,1577.4,2540.3,1669.3l147.4,13.4v-329.3v-327.4h-45.9c-24.9,0-116.8-13.4-204.8-28.7c-1087.3-189.5-1916.3-984-2144.1-2057.9c-55.5-264.2-61.3-729.4-9.6-984c216.3-1098.8,1047.2-1922,2126.9-2107.7c250.8-44,629.8-44,880.6,0c880.6,151.2,1627.2,750.4,1968,1577.4c162.7,392.5,229.7,842.3,187.6,1240.5c-91.9,851.9-539.8,1560.2-1261.5,2000.5c-181.9,109.1-448,225.9-522.6,225.9c-82.3,0-151.2-67-151.2-151.2c0-72.8,44-155.1,82.3-155.1c49.8,0,451.8-210.6,587.7-308.2c455.6-321.6,784.9-836.6,911.2-1424.3c40.2-189.5,45.9-612.6,9.6-813.6c-162.7-930.4-880.6-1671.2-1797.6-1856.9c-271.8-53.6-635.6-53.6-907.4,0c-917,187.6-1634.9,928.5-1797.6,1856.9c-30.6,178-30.6,599.2,0,765.7c180,962.9,917,1699.9,1866.5,1866.5c93.8,15.3,181.9,28.7,195.3,28.7c21.1,0,26.8-63.2,26.8-325.4v-323.5l-70.8-13.4c-394.4-67-687.3-225.9-966.8-522.6c-314-333.1-474.8-825.1-419.2-1269.2c109.1-846.1,784.9-1451.1,1619.5-1451.1c752.3,0,1386,493.9,1581.2,1234.8c53.6,202.9,57.4,534.1,9.6,742.8C6488,615.1,6176,1026.7,5766.3,1237.2c-130.2,67-273.8,5.8-273.8-116.8c0-78.5,42.1-126.3,166.6-197.2c61.2-34.5,181.9-132.1,266.1-218.2c128.3-128.3,170.4-185.7,243.1-336.9c101.5-214.4,134-352.3,134-574.3c0-222.1-32.5-359.9-134-574.3c-74.7-155-112.9-206.7-252.7-344.6c-266.1-264.2-547.5-382.9-911.2-382.9s-647,118.7-911.2,382.9c-268,268-384.8,543.7-386.7,909.3c0,342.7,114.9,643.2,340.7,886.3c195.3,210.6,400.1,329.3,675.8,394.4l118.7,26.8V760.6V427.5l-103.4-45.9c-202.9-93.8-333.1-262.3-373.3-484.3c-49.8-277.6,97.6-562.8,359.9-691.1c93.8-45.9,130.2-53.6,279.5-53.6c149.3,0,185.7,7.7,279.5,53.6c187.6,91.9,319.7,268,359.9,478.6C5676.3-141.1,5624.6-55,5490.6-53c-90,0-143.6-59.3-160.8-178c-30.6-208.7-199.1-331.2-400.1-292.9c-80.4,15.3-174.2,88.1-216.3,170.4c-34.5,68.9-38.3,220.2-5.7,283.3c28.7,57.4,97.6,132.1,118.7,132.1c7.7,0,15.3-72.7,15.3-160.8c0-143.6,5.7-168.5,45.9-214.4c63.2-74.7,170.4-74.7,233.5,0l45.9,51.7v2479.1v2477.2h574.3h574.3v-649v-650.9l-365.7-5.8l-365.6-5.7l-45.9-53.6c-55.5-65.1-59.3-145.5-9.6-206.8c36.4-44,45.9-45.9,407.8-55.5l369.5-9.6l5.7-114.9c3.8-84.2,17.2-126.3,46-157l40.2-44h714.1c392.4,0,727.5,5.7,744.7,11.5c82.3,32.5,86.1,74.7,86.1,974.4v855.7l-57.4,55.5l-57.4,57.4l-394.4-5.8c-388.6-5.7-394.4-5.7-430.7-51.7c-51.7-63.2-47.9-164.6,11.5-222.1c44-45.9,53.6-47.9,325.4-47.9h277.6v-650.9v-650.9h-488.2h-486.3l-5.7,930.4l-5.7,930.4l-53.6,45.9l-53.6,45.9l-779.2-1.9C5251.3,5018.1,4950.8,5010.4,4925.9,4997z"/></g></g>
</svg>