<?xml version="1.0" encoding="utf-8"?>
<!-- Svg Vector Icons : http://www.onlinewebfonts.com/icon -->
<!DOCTYPE svg PUBLIC "-//W3C//DTD SVG 1.1//EN" "http://www.w3.org/Graphics/SVG/1.1/DTD/svg11.dtd">
<svg version="1.1" xmlns="http://www.w3.org/2000/svg" xmlns:xlink="http://www.w3.org/1999/xlink" x="0px" y="0px" viewBox="0 0 1000 1000" enable-background="new 0 0 1000 1000" xml:space="preserve">
<metadata> Svg Vector Icons : http://www.onlinewebfonts.com/icon </metadata>
<g><g><path d="M940.7,438.8c26.8-30.2,43.1-69.7,43.1-113.1c0-94.3-76.7-171-171-171c-15.8,0-31.1,2.3-45.7,6.4l-0.4-0.3c-0.1,0.1-0.1,0.3-0.2,0.4c-71.8,20.3-124.6,86.2-124.6,164.5c0,43.4,16.4,82.9,43.2,113.1h-49.4v150.6H990V438.8H940.7L940.7,438.8z M917.4,438.8H885c4.3-11.1,8-22.6,11-34.3h49.4C937.7,417.3,928.2,428.7,917.4,438.8z M954,387.9h-54.3c3.4-17.6,5.4-35.6,5.7-54h61.5C965.8,353.1,961.4,371.3,954,387.9z M966.9,317.4h-61.7c-0.6-18.4-2.7-36.5-6.4-54H954C961.4,280.1,965.8,298.3,966.9,317.4z M945.3,246.8h-50.6c-6.1-22.8-14.9-44.5-26.2-65C900.8,194.4,927.7,217.5,945.3,246.8z M821.2,171.7c8.1,0.5,16,1.3,23.6,2.9c14.4,22.3,25.3,46.5,32.8,72.2h-56.5V171.7L821.2,171.7z M821.2,263.4h60.7c4,17.4,6.1,35.5,6.7,54h-67.4V263.4z M821.2,333.9h67.7c-0.4,18.4-2.3,36.5-6,54h-61.7V333.9L821.2,333.9z M777.3,175.6c8.8-2.1,17.9-3.4,27.2-3.9v75.1h-57.7C753.7,221.6,763.9,197.7,777.3,175.6z M736.9,317.4c0.4-18.4,2.3-36.5,5.9-54h61.7v54H736.9z M804.6,333.9v54h-60.7c-3.9-17.5-6.1-35.5-6.7-54H804.6z M754.1,182.9c-10.6,20.1-18.7,41.6-24.3,63.9h-49.4C697.4,218.4,723.2,195.8,754.1,182.9z M671.7,263.4H726c-3.4,17.5-5.3,35.6-5.7,54H659C660,298.3,664.4,280.1,671.7,263.4z M658.9,333.9h61.6c0.6,18.4,2.7,36.5,6.4,54h-55.2C664.4,371.3,660,353.1,658.9,333.9z M680.4,404.5H731c3.1,11.7,7.1,23.2,11.6,34.3h-34.3C697.6,428.8,688.1,417.3,680.4,404.5z M744.7,554.4v8.8h-69.4v-98.3h10.2h10.3v80.7h48.8L744.7,554.4L744.7,554.4z M804.6,404.5v34.3h-43.9c-4.9-11.1-9.1-22.5-12.5-34.3H804.6z M773.6,563.2h-10.3h-10.3V465h10.2h10.3L773.6,563.2L773.6,563.2z M833.7,563.2h-9.8h-9.7L780.9,465h10.9h10.9l21.7,75l21.5-75h10.6h10.7L833.7,563.2z M821.2,438.8v-34.3h57.7c-3.2,11.8-7.2,23.2-11.8,34.3H821.2z M950.4,554.4v8.8h-74.6v-98.3h72.3v8.6v8.8h-51.8v20.8h48v8.4v8.5h-48v25.5h54.1V554.4z M285.6,431.6c0,13.1-10.6,23.7-23.7,23.7c-13,0-23.7-10.6-23.7-23.7c0-13.1,10.6-23.7,23.7-23.7C275.1,408,285.6,418.5,285.6,431.6z M428.7,455.3c-13,0-23.7-10.6-23.7-23.7c0-13.1,10.6-23.7,23.7-23.7c13,0,23.7,10.5,23.7,23.7C452.4,444.7,441.8,455.3,428.7,455.3z M345.4,587.4c-26.8,0-49.6-10.4-59.2-25c14,9.4,35.1,15.3,59.2,15.3c24,0,45.2-6,59-15.3C394.9,577,372.1,587.4,345.4,587.4z M364.5,760.2l10.1-0.2c-0.2,3.1-0.8,6.1-1.9,8.7h-8.9C364.2,766.1,364.5,763.2,364.5,760.2z M347.8,740.8l-0.1-12.6c1,0,1.9,0,2.9,0.2c2.5,3.9,4.5,8.1,5.9,12.3L347.8,740.8z M362.1,740.3c-0.9-3.2-2.2-6.2-3.6-9.1c2.7,1.4,5.3,3,7.5,5.2c0.7,0.7,1.3,1.6,1.8,2.3c0.5,0.7,1.2,1.3,1.7,1.9h-7.4C362.2,740.6,362.1,740.4,362.1,740.3z M347.9,746.1h9.9c0.6,2.9,1.1,5.6,1.3,8.7l-11.2,0.1L347.9,746.1L347.9,746.1z M363.4,746h9.1c1.2,2.7,1.8,5.6,2,8.7h-10C364.3,751.7,364,748.9,363.4,746z M348,774.5l9-0.1c-0.6,2-1.3,4-2.1,6.1c-0.9,2.1-2,4.2-3.1,6.2c-1.2,0.2-2.4,0.2-3.6,0.4l-0.1-6.6L348,774.5z M362.6,774.4l7.1-0.3c-0.9,1.5-2,3-3.4,4.3c-0.6,0.6-1.5,1.3-2.3,1.9c-1.4,1.1-2.9,2.1-4.5,3c0.5-1,0.7-2,1.2-3C361.4,778.4,362.1,776.3,362.6,774.4z M590,618.9c55.8,59.5,90.7,138.5,90.7,226.7H384.5l2.2-39l37.4-0.3l-0.6-98.8l-17.8,0.2c6.4-10.7,10.1-23.2,9.9-36.6c-0.1-16.7-6.2-31.8-15.9-43.8c13-3.7,25.7-8.3,37.4-14.5c0.1,0,0.2-0.1,0.2-0.1c12.4-6.5,23.8-14.7,34.5-23.5c1.9-1.7,3.9-3.3,5.7-5c10.5-9.6,20.3-19.8,28.6-31.4c11.4-15.8,20.7-33.3,27-52.1c1.2,0.2,2.2,0.9,3.3,0.9c19.5,0,35.3-21.2,35.3-47.4c0-23.8-13.3-42.5-30.3-45.9c-0.3-1.7-0.7-3.2-0.9-4.9c-2.7,20-6.8,33.2-7.6,32.9c2.8-3.3-21.6-90.7-116.7-113.2c-1.9-0.5-3.6-1-5.4-1.6c-14.1,33.6-40.4,58.6-81.7,50.8c-143.3-27-183.4,58.6-180.2,64c-0.9,0.3-5.4-9-9.1-24.1c-12.1,7.3-20.7,23-20.7,42c0,26.2,15.9,47.4,35.3,47.4c1.2,0,2.3-0.7,3.3-0.9c6.4,18.8,15.7,36.3,27.1,52.1c8.3,11.6,18.2,21.9,28.6,31.5c1.9,1.7,3.7,3.2,5.6,4.8c10.7,8.9,22.1,17.2,34.6,23.7c0.1,0,0.1,0,0.1,0c11.4,6.1,23.7,10.5,36.4,14c-10.1,12.4-16.5,28-16.3,45.4c0,13.3,3.9,25.7,10.4,36.3l-17.6,0l0.6,98.9l37.4-0.3l2.6,38.5H10c0-88.2,34.9-167.2,90.8-226.7V427c0-150.5,109.6-272.7,244.7-272.7c135,0,244.6,122.2,244.6,272.7L590,618.9L590,618.9L590,618.9z M348,760.2l11.2-0.1c-0.1,3-0.6,6-1,8.5l-10.3,0.2V760.2z M327.7,740.9h-7c0.5-0.7,1.1-1.4,1.6-1.9c2.3-3,5.2-5.3,8.5-7.3c-1.3,2.8-2.2,5.7-3.1,8.8C327.7,740.7,327.8,740.8,327.7,740.9z M325.9,754.9l-10,0.2c0.2-2.9,0.8-5.9,1.9-8.7l9-0.1C326.2,749.2,325.9,751.9,325.9,754.9z M330.5,780.5c0.5,1.3,0.9,2.5,1.5,3.5c-1.9-1-3.6-2-5.2-3.5c-0.8-0.6-1.6-1.1-2.3-1.8c-1.4-1.3-2.6-2.6-3.6-4.1h7.3C328.8,776.7,329.6,778.5,330.5,780.5z M342.4,754.9l-11.1,0.1c0-3,0.4-5.7,0.9-8.6h10.2L342.4,754.9z M275.7,798.7l28.2-0.2l83.3-0.6l28-0.4l-0.6-81.2l-15.1,0.1l-109.3,0.8h-15L275.7,798.7z M316.9,737c6.3-8.6,16.5-14.6,28-14.6c9.5-0.1,18.3,3.6,25,10.3c1.1,1.3,2.2,2.6,3.3,3.8c4.5,6.1,7.1,13.3,7.1,20.9c0,8.5-3,16.3-8.5,22.9c-0.6,0.6-0.9,1.4-1.6,1.8c-6.6,6.8-15.3,10.5-24.8,10.5c-9.3,0-18.1-3.5-24.9-10.1c-0.6-0.6-1-1.3-1.6-1.9c-5.6-6.3-8.8-14.1-8.8-22.7C310.1,749.9,312.7,742.9,316.9,737z M327,768.9h-9.1c-1.2-2.5-1.7-5.7-2-8.4l10.1-0.2C326.1,763.3,326.5,766.2,327,768.9z M342.6,774.5l0.1,6l0.1,6.6c-1,0-2,0-3-0.2c-1.3-2-2.4-4.2-3.4-6.3c-1-1.9-1.7-4-2.4-6H342.6z M342.4,760.3l0.2,8.6l-10,0c-0.6-2.8-1-5.7-1.2-8.6H342.4z M342.4,740.8l-8.9,0.2c1.2-4.4,3-8.6,5.3-12.2c1.2-0.3,2.4-0.3,3.5-0.5L342.4,740.8z"/></g><g></g><g></g><g></g><g></g><g></g><g></g><g></g><g></g><g></g><g></g><g></g><g></g><g></g><g></g><g></g></g>
</svg>