<?xml version="1.0" encoding="utf-8"?>
<!-- Svg Vector Icons : http://www.onlinewebfonts.com/icon -->
<!DOCTYPE svg PUBLIC "-//W3C//DTD SVG 1.1//EN" "http://www.w3.org/Graphics/SVG/1.1/DTD/svg11.dtd">
<svg version="1.1" xmlns="http://www.w3.org/2000/svg" xmlns:xlink="http://www.w3.org/1999/xlink" x="0px" y="0px" viewBox="0 0 1000 1000" enable-background="new 0 0 1000 1000" xml:space="preserve">
<metadata> Svg Vector Icons : http://www.onlinewebfonts.com/icon </metadata>
<g><g id="Page-1_2_"><path id="Fill-1" d="M444,114.6C444,53,494,3,555.6,3C617.2,3,667.1,53,667.1,114.6c0,61.6-49.9,111.5-111.5,111.5C494,226.1,444,176.2,444,114.6L444,114.6z M989.9,895.2c-1.5,16.1-15,28.1-30.8,28.1c-1,0-1.9,0-2.9-0.1l-95.5-8.8c-6.5-0.6-12.4-3.2-17-7.1c-1.3-0.9-2.5-2-3.6-3.2L587.5,625.5c-4.7-0.6-9.3-1.8-13.8-3.7c-18-7.9-28.8-25.3-29.1-43.7L444.1,467.2c-14.7,4.9-31.5,2.8-44.8-7.2c-4.1-3.1-10.9-8.3-19.3-15.2c-4.4,6.8-8.8,13.5-13.1,20.3C512.4,543.8,583,683.1,577,880c-0.8,26.4-22.5,47.3-48.7,47.3c-0.5,0-1,0-1.5,0c-26.9-0.8-48-23.3-47.2-50.2c4.9-160-48.9-267.7-163.8-328.4c-54,91.6-105.5,189.5-160.2,304.2c-8.4,17.5-25.8,27.7-44,27.7c-7,0-14.2-1.5-21-4.8c-24.3-11.6-34.6-40.7-23-64.9c80.9-169.5,154.8-303.6,240.1-433.9c-34.2-37.7-64.8-82.8-66.9-124.9c-1.3-25.6,7.9-48.8,25.9-65.4c54.4-50,169-8,254.1,59.3c99.5,78.7,158.5,255.7,116.9,350.6c-1.8,4.1-4.1,7.7-6.7,11l223.2,246.3c3.8-1.2,7.8-1.7,12-1.3l95.5,8.9C978.9,863,991.4,878.1,989.9,895.2L989.9,895.2z M364.5,293.2c4.5-6.5,9-12.9,13.6-19.4c-13.4-5.4-25-8.7-34-10.5C348.5,271.5,355.3,281.7,364.5,293.2L364.5,293.2z M434.4,363.4c7.4,6.2,15.3,12.4,23.6,18.7c16.9,12.7,23,34.2,17.1,53.2l79.3,87.5c-0.5-60.2-38.2-154.9-92.1-198.9C452.7,337.1,443.4,350.3,434.4,363.4L434.4,363.4z M74.8,888c-10.5-6.2-24.1-2.8-30.4,7.7l-31.4,52.7c-6.2,10.5-2.8,24.1,7.7,30.4c3.6,2.1,7.4,3.1,11.3,3.1c7.6,0,14.9-3.9,19.1-10.8l31.4-52.8C88.8,907.8,85.3,894.3,74.8,888L74.8,888z M589.2,952.7h-90.8c-12.2,0-22.2,9.9-22.2,22.2c0,12.2,9.9,22.1,22.2,22.1h90.8c12.2,0,22.2-9.9,22.2-22.1C611.4,962.6,601.5,952.7,589.2,952.7L589.2,952.7z"/></g></g>
</svg>