<?xml version="1.0" encoding="utf-8"?>
<!-- Svg Vector Icons : http://www.onlinewebfonts.com/icon -->
<!DOCTYPE svg PUBLIC "-//W3C//DTD SVG 1.1//EN" "http://www.w3.org/Graphics/SVG/1.1/DTD/svg11.dtd">
<svg version="1.1" xmlns="http://www.w3.org/2000/svg" xmlns:xlink="http://www.w3.org/1999/xlink" x="0px" y="0px" viewBox="0 0 1000 1000" enable-background="new 0 0 1000 1000" xml:space="preserve">
<metadata> Svg Vector Icons : http://www.onlinewebfonts.com/icon </metadata>
<g><g transform="translate(0.000000,511.000000) scale(0.100000,-0.100000)"><path d="M3807.9,4901.4C2098,4478.5,792.5,3222.1,241,1469.2C118.4,1070.8,100,887,100,90.2c6.1-876.4,12.3-943.8,202.2-1501.6c288.1-827.4,619-1354.5,1231.9-1961.2c551.6-539.3,974.5-833.6,1587.4-1078.7c698.7-281.9,1103.2-355.4,1912.2-349.3c649.6,0,851.9,30.6,1317.7,165.4c1379,416.8,2457.6,1317.7,3064.4,2580.3C9814.2-1233.6,9900-853.6,9900,120.9c0,956.1-85.8,1348.3-453.6,2120.6c-300.3,619-790.6,1250.2-1299.3,1673.2C7663,4313,6804.9,4742,6173.6,4901.4C5536.3,5060.7,4457.6,5060.7,3807.9,4901.4z M6106.2,4441.7c1581.2-410.6,2819.2-1667,3223.7-3278.9c177.8-710.9,141-1709.9-85.8-2420.9c-882.6-2690.5-3965.4-3891.8-6459.8-2512.8c-612.9,343.3-1391.2,1146.1-1722.2,1789.6C424.8-743.3,369.7,709.3,927.4,1935c760,1679.3,2445.4,2721.2,4259.5,2629.2C5493.4,4552,5904,4496.9,6106.2,4441.7z"/><path d="M3697.6,3026c-183.9-128.7-177.8-361.6,18.4-490.3c141-91.9,165.5-91.9,306.4,0c196.1,128.7,202.2,361.6,18.4,490.3c-73.5,55.1-153.2,98-171.6,98S3771.2,3081.1,3697.6,3026z"/><path d="M5965.3,3026c-183.9-128.7-177.8-361.6,18.4-490.3c140.9-91.9,165.5-91.9,306.4,0c196.1,128.7,202.2,361.6,18.4,490.3c-73.6,55.1-153.2,98-171.6,98S6038.8,3081.1,5965.3,3026z"/><path d="M2612.8,1971.8c-802.9-380-992.9-1366.7-380-2004.1C2643.5-455.2,3139.9-541,3667-277.5C4102.1-56.8,4316.6,268,4347.3,758.3c24.5,465.8-147.1,839.7-527.1,1103.2C3489.2,2094.4,2980.5,2143.4,2612.8,1971.8z M3164.4,1475.4c-281.9-122.6-625.2-484.2-680.3-711c-67.4-275.8-165.5-171.6-128.7,134.8c24.5,232.9,73.6,331,251.3,490.3c183.9,171.6,263.6,202.2,508.7,202.2h294.2L3164.4,1475.4z"/><path d="M6382,1984.1c-502.6-220.7-760-649.7-723.2-1225.8c30.6-508.7,245.2-839.7,680.3-1042c349.4-159.3,594.5-183.9,907.1-79.6c631.3,214.5,980.6,827.4,845.8,1464.8C7932.6,1843.1,7074.6,2284.3,6382,1984.1z M6896.9,1475.4c-251.3-116.5-698.7-576.1-698.7-723.2c0-42.9-24.5-79.7-61.3-79.7c-85.8,0-73.6,214.5,24.5,453.6c128.7,306.4,367.7,465.8,704.8,465.8h281.9L6896.9,1475.4z"/><path d="M3636.3-810.7c-171.6-171.6-18.4-539.3,226.7-539.3c141,0,312.6,190,312.6,343.3c0,165.4-116.4,269.6-306.4,269.6C3783.4-737.1,3679.2-767.8,3636.3-810.7z"/><path d="M5904-810.7c-110.3-110.3-91.9-324.8,36.7-435.1c147.1-134.8,275.8-128.7,398.4,6.1c208.4,226.8,91.9,502.6-202.2,502.6C6051.1-737.1,5946.9-767.8,5904-810.7z"/><path d="M3636.3-1730c-171.6-171.6-18.4-539.3,226.7-539.3c61.3,0,159.4,55.1,220.6,122.6c165.5,183.9,61.3,453.5-183.9,478C3795.7-1656.5,3679.2-1687.1,3636.3-1730z"/><path d="M5904-1730c-171.6-171.6-18.4-539.3,226.8-539.3c61.3,0,159.3,55.1,220.6,122.6c165.5,183.9,61.3,453.5-183.9,478C6063.3-1656.5,5946.9-1687.1,5904-1730z"/><path d="M3636.3-2649.4c-42.9-42.9-73.6-147.1-73.6-232.9s30.6-190,73.6-232.9c171.6-171.7,539.3-12.3,539.3,232.9C4175.7-2637.1,3807.9-2477.7,3636.3-2649.4z"/><path d="M5904-2649.4c-190-190-24.5-539.3,257.4-539.3c122.6,0,281.9,171.6,281.9,306.4C6443.3-2637.1,6075.6-2477.7,5904-2649.4z"/></g></g>
</svg>