<?xml version="1.0" encoding="utf-8"?>
<!-- Svg Vector Icons : http://www.onlinewebfonts.com/icon -->
<!DOCTYPE svg PUBLIC "-//W3C//DTD SVG 1.1//EN" "http://www.w3.org/Graphics/SVG/1.1/DTD/svg11.dtd">
<svg version="1.1" xmlns="http://www.w3.org/2000/svg" xmlns:xlink="http://www.w3.org/1999/xlink" x="0px" y="0px" viewBox="0 0 1000 1000" enable-background="new 0 0 1000 1000" xml:space="preserve">
<metadata> Svg Vector Icons : http://www.onlinewebfonts.com/icon </metadata>
<g><g transform="translate(0.000000,511.000000) scale(0.100000,-0.100000)"><path d="M100,471.5c0-2566.5,8-4578.7,18.1-4578.7c8,0,36.2-52.2,58.2-116.5c90.4-243,291.2-457.9,520.1-548.2l116.5-48.2l4544.6-6l4542.5-4v4578.7v4578.7h-331.3h-331.4v361.5v361.5H4668.6H100V471.5z M8654.9,3654.5V2801H4668.6H682.4v853.5v853.5h3986.3h3986.3V3654.5z M9317.6-261.5v-4026.4H5166.7c-2787.4,0-4177.1,6-4227.3,20.1c-40.2,12-104.4,50.2-138.6,86.3l-64.3,64.3l4245.3,10l4245.3,10l6,3932c4,3914,4,3930,44.2,3930S9317.6,3748.9,9317.6-261.5z M8654.9-572.8v-2972.1H4668.6H682.4v2972.1v2972.1h3986.3h3986.3V-572.8z"/><path d="M3036,3660.5l6-488l1713-6l1711-4v492v492H4749H3032L3036,3660.5z"/><path d="M1204.5,521.7V-874h1486.1h1486.1V521.7v1395.7H2690.6H1204.5V521.7z"/><path d="M5020.1,1636.2v-281.1H6466h1445.9v281.1v281.1H6466H5020.1V1636.2z"/><path d="M5020.1,521.7V250.6H6466h1445.9v271.1v271.1H6466H5020.1V521.7z"/><path d="M5020.1-592.9V-874H6466h1445.9v281.1v281.2H6466H5020.1V-592.9z"/><path d="M5020.1-1647.2v-271.1H6466h1445.9v271.1v271.1H6466H5020.1V-1647.2z"/><path d="M1184.4-1707.4v-271.1h1526.2h1526.2v271.1v271.1H2710.7H1184.4V-1707.4z"/><path d="M5106.4-2496.6l-86.3-6v-271.1v-269.1H6466h1445.9v271.1v271.1l-124.5,2C7084.5-2494.6,5170.7-2492.6,5106.4-2496.6z"/><path d="M1184.4-2822v-281.1h1526.2h1528.2l-6,277.1l-6,275.1l-1520.2,6l-1522.2,4V-2822z"/></g></g>
</svg>