<?xml version="1.0" encoding="utf-8"?>
<!-- Svg Vector Icons : http://www.onlinewebfonts.com/icon -->
<!DOCTYPE svg PUBLIC "-//W3C//DTD SVG 1.1//EN" "http://www.w3.org/Graphics/SVG/1.1/DTD/svg11.dtd">
<svg version="1.1" xmlns="http://www.w3.org/2000/svg" xmlns:xlink="http://www.w3.org/1999/xlink" x="0px" y="0px" viewBox="0 0 1000 1000" enable-background="new 0 0 1000 1000" xml:space="preserve">
<metadata> Svg Vector Icons : http://www.onlinewebfonts.com/icon </metadata>
<g><g id="XMLID_98_"><path id="XMLID_99_" d="M591.2,939.3L591.2,939.3c-14.1,0-27.9-2.7-40.9-8.1c-40.1-16.7-66-55.4-66-98.7v-95C214.6,695.9,9.9,462,10,184.5c0-15.8,0.7-31.6,2-47.1c3.1-36.8,30.6-67.7,66.7-75.1c35.8-7.4,73.7,10.3,90.9,42.7C235.2,228,350.3,312,484.3,337.4v-88.9c0-43.4,25.9-82.1,66-98.7c39.1-16.3,86.2-7.1,116.4,23.1l292,292.1c20.2,20.2,31.3,47,31.3,75.5c0,28.5-11.1,55.4-31.3,75.5l-292,292C646.6,928.2,619.7,939.3,591.2,939.3z M117.8,222.2c18.4,221.3,197.5,400.2,423,414.6c28,1.8,49.8,25,49.8,53l0.6,143.2c0.1,0,0.3,0,0.4-0.2l292-292l-292-292.8l-1,149.5c0,14.7-6.1,28.7-16.8,38.7c-10.7,10-24.7,15.3-39.8,14.3C365.9,439.9,215.1,356.1,117.8,222.2z"/></g><g></g><g></g><g></g><g></g><g></g><g></g><g></g><g></g><g></g><g></g><g></g><g></g><g></g><g></g><g></g></g>
</svg>