<?xml version="1.0" encoding="utf-8"?>
<!-- Svg Vector Icons : http://www.onlinewebfonts.com/icon -->
<!DOCTYPE svg PUBLIC "-//W3C//DTD SVG 1.1//EN" "http://www.w3.org/Graphics/SVG/1.1/DTD/svg11.dtd">
<svg version="1.1" xmlns="http://www.w3.org/2000/svg" xmlns:xlink="http://www.w3.org/1999/xlink" x="0px" y="0px" viewBox="0 0 1000 1000" enable-background="new 0 0 1000 1000" xml:space="preserve">
<metadata> Svg Vector Icons : http://www.onlinewebfonts.com/icon </metadata>
<g><g><path d="M411.4,813.1c82.6,0,159-25.2,222.7-67.7L864.7,976c18.1,18.1,48,18.1,66.9,0l44.9-44.9c18.1-18.1,18.1-48,0-66.9L745.1,634.5c42.5-63.8,67.7-140.1,67.7-222.7c0-221.1-180.2-401.4-401.4-401.4C190.2,10.4,10,190.6,10,411.8S189.4,813.1,411.4,813.1z M411.4,167.8c134.6,0,244,109.4,244,244c0,134.6-109.4,244-244,244c-134.6,0-244-109.4-244-244C167.4,277.2,276.8,167.8,411.4,167.8z"/></g><g></g><g></g><g></g><g></g><g></g><g></g><g></g><g></g><g></g><g></g><g></g><g></g><g></g><g></g><g></g></g>
</svg>