<?xml version="1.0" encoding="utf-8"?>
<!-- Svg Vector Icons : http://www.onlinewebfonts.com/icon -->
<!DOCTYPE svg PUBLIC "-//W3C//DTD SVG 1.1//EN" "http://www.w3.org/Graphics/SVG/1.1/DTD/svg11.dtd">
<svg version="1.1" xmlns="http://www.w3.org/2000/svg" xmlns:xlink="http://www.w3.org/1999/xlink" x="0px" y="0px" viewBox="0 0 1000 1000" enable-background="new 0 0 1000 1000" xml:space="preserve">
<metadata> Svg Vector Icons : http://www.onlinewebfonts.com/icon </metadata>
<g><path d="M902.6,101.8c-6.9-5-15.9-6.3-24.1-3.6c-34,11.2-102.3,0.9-126.1-13.9c-96-59.8-178.8-74.3-235-74.3c-14.4,0-22.6,0-37,0c-67.7,0-143.4,24.2-229.1,71.4c-31.5,17.3-96,27.8-130,16.7c-8.2-2.7-16.9-1.3-24,3.6c-7,5-11.1,12.8-11.1,21.3l2,259.9c0,254.6,166.6,492.4,399,604.3c7.4,3.6,16,3.6,23.5,0c232.3-111.9,402.9-349.7,402.9-604.3V123.1C913.7,114.6,909.6,106.7,902.6,101.8L902.6,101.8z M781.6,598.8c-12.8,24-24,49.3-39.7,72C673.8,768.8,594.7,861,501.5,900c0-139.5-1.6-347.8-2.3-400.3c0,0-0.3,0-0.3,0L192.7,502c0,0-14.3-61.6-15.3-142.3c-0.9-74.7,0.4-170,0.4-170s30.7-8.8,73.3-21c41.7-12,91.8-43.8,138-57C448,94.9,498.9,97.9,498.9,97.9v401.7c0-17.6,0-15.6,0.3,0c80.9,0,152.8,0,233.8,0c28.9,0,44.1,0,73,0C813.3,499.6,785,592.4,781.6,598.8L781.6,598.8z"/></g>
</svg>