<?xml version="1.0" encoding="utf-8"?>
<!-- Svg Vector Icons : http://www.onlinewebfonts.com/icon -->
<!DOCTYPE svg PUBLIC "-//W3C//DTD SVG 1.1//EN" "http://www.w3.org/Graphics/SVG/1.1/DTD/svg11.dtd">
<svg version="1.1" xmlns="http://www.w3.org/2000/svg" xmlns:xlink="http://www.w3.org/1999/xlink" x="0px" y="0px" viewBox="0 0 1000 1000" enable-background="new 0 0 1000 1000" xml:space="preserve">
<metadata> Svg Vector Icons : http://www.onlinewebfonts.com/icon </metadata>
<g><g transform="translate(0.000000,511.000000) scale(0.100000,-0.100000)"><path d="M1687.7,1588.2C813.7,781.5,100,114.3,100,104c0-12.9,2870.2-2671.1,3136.5-2906.4c54.3-46.5,54.3-46.5,281.9,191.3c124.1,131.9,230.1,253.4,235.3,271.5c5.2,18.1-488.7,491.3-1096.4,1049.8L1553.2-270.9l1724.7,7.8c946.4,2.6,2497.8,2.6,3444.2,0l1724.7-7.8L7342.7-1289.7C6735-1848.2,6241.2-2321.4,6246.3-2339.5s111.2-139.6,235.3-271.5c227.5-237.9,227.5-237.9,281.9-191.3C7016.9-2582.6,9900,91.1,9900,104c0,15.5-3022.8,2815.9-3149.4,2916.7c-36.2,31-69.8,7.8-268.9-201.7c-124.1-131.9-230.1-253.4-235.3-271.5s488.7-491.3,1096.3-1049.8L8444.2,478.9l-1722.1-7.7c-946.4-2.6-2497.8-2.6-3444.2,0l-1722.1,7.7l1101.5,1016.2c605.1,561.1,1101.5,1029.1,1101.5,1044.6c0,25.9-426.7,488.7-468,506.8C3283.1,3049.1,2561.6,2392.4,1687.7,1588.2z"/></g></g>
</svg>