<?xml version="1.0" encoding="utf-8"?>
<!-- Svg Vector Icons : http://www.onlinewebfonts.com/icon -->
<!DOCTYPE svg PUBLIC "-//W3C//DTD SVG 1.1//EN" "http://www.w3.org/Graphics/SVG/1.1/DTD/svg11.dtd">
<svg version="1.1" xmlns="http://www.w3.org/2000/svg" xmlns:xlink="http://www.w3.org/1999/xlink" x="0px" y="0px" viewBox="0 0 1000 1000" enable-background="new 0 0 1000 1000" xml:space="preserve">
<metadata> Svg Vector Icons : http://www.onlinewebfonts.com/icon </metadata>
<g><g transform="translate(0.000000,511.000000) scale(0.100000,-0.100000)"><path d="M765.7,4153.5c-59-64.2-59-66.7-30.8-338.8c64.2-562.1,82.1-908.5,82.1-1575.8c0-926.5-46.2-1488.6-241.3-2884.7c-128.3-906-169.4-1319.2-187.4-1847.9c-20.5-610.8-35.9-587.7,413.2-598L1125-3102V-3356v-254.1H665.6h-462l-51.3-66.7c-71.9-89.8-69.3-192.5,5.1-264.4l61.6-56.4l3931.8,2.6c2499.8,0,3998.6,10.3,4116.6,25.7c621.1,87.3,1042,318.3,1316.6,723.8c189.9,277.2,354.2,800.8,308,985.5c-20.5,82.1-164.2,148.9-251.5,115.5c-95-35.9-118-79.6-161.7-295.1c-123.2-600.5-431.2-936.8-977.8-1077.9c-151.4-38.5-577.5-92.4-728.9-92.4h-77v266.9c0,218.2,7.7,269.5,41.1,282.3c23.1,7.7,246.4,15.4,497.9,15.4c261.8,0,490.2,12.8,531.3,28.2c361.9,136,423.5,752,136,1350c-302.8,621.1-975.3,1219.1-1670.8,1480.9c-95,35.9-361.9,100.1-598,141.2c-867.5,161.7-1334.6,367-1704.1,757.1c-218.1,228.4-361.9,508.2-451.7,862.3c-100.1,395.2-123.2,734-115.5,1642.5c5.1,459.4,0,857.2-10.3,888c-38.5,110.4-66.7,112.9-1837.6,112.9H824.7L765.7,4153.5z M4638.5,906.9c25.7-12.8,61.6-59,79.6-102.7c56.5-133.5,5.1-197.6-315.7-402.9c-369.6-233.5-395.2-246.4-469.7-228.4c-159.1,41.1-213,215.6-105.2,333.6c84.7,95,631.4,426,703.2,426C4564.1,932.6,4612.9,922.3,4638.5,906.9z M5141.6,329.4c41.1-38.5,64.2-89.8,64.2-141.2c0-69.3-46.2-128.3-300.3-390.1c-166.8-169.4-333.6-323.4-372.1-343.9c-89.8-46.2-184.8-23.1-251.5,59c-100.1,128.3-77,172,287.5,539c300.3,302.8,349,341.3,423.5,341.3C5051.7,393.6,5100.5,373.1,5141.6,329.4z M5796,13.8c28.2-33.4,51.3-84.7,51.3-110.4c0-77-328.5-710.9-382.4-741.7c-130.9-69.3-310.5,28.2-310.5,166.8c0,35.9,74.4,213,166.8,395.2C5454.7-6.8,5498.3,60,5557.4,77.9C5654.9,111.3,5737,90.8,5796,13.8z M3401.5-2619.5c564.6-189.9,1267.8-341.3,1855.6-400.4c148.8-15.4,664.7-33.4,1149.8-43.6l877.7-15.4v-264.4v-266.9H4410.1H1535.7v256.6v256.7h721.2H2978l77,77c77,79.6,77,79.6,61.6,282.3c-10.3,112.9-7.7,205.3,2.6,205.3C3132-2532.2,3260.4-2570.7,3401.5-2619.5z"/></g></g>
</svg>