<?xml version="1.0" encoding="utf-8"?>
<!-- Svg Vector Icons : http://www.onlinewebfonts.com/icon -->
<!DOCTYPE svg PUBLIC "-//W3C//DTD SVG 1.1//EN" "http://www.w3.org/Graphics/SVG/1.1/DTD/svg11.dtd">
<svg version="1.1" xmlns="http://www.w3.org/2000/svg" xmlns:xlink="http://www.w3.org/1999/xlink" x="0px" y="0px" viewBox="0 0 1000 1000" enable-background="new 0 0 1000 1000" xml:space="preserve">
<metadata> Svg Vector Icons : http://www.onlinewebfonts.com/icon </metadata>
<g><g transform="translate(0.000000,511.000000) scale(0.100000,-0.100000)"><path d="M4876,4981.5c-60-34-58-30-264-660.1l-148-460.1l-594.1-10l-594.1-10l-58-66c-84-94-82-200,8-292.1c34-36,248.1-200,474.1-362.1c226-162,414.1-298.1,416.1-302.1c4-2-70-244-164-534.1c-94-292.1-172-558.1-172-592.1c0-40,20-84,58-126c50-56,72-66,146-66c80,0,118,24,536.1,328c248,182,464.1,330,480.1,330c16,0,232-148,480.1-330c418.1-304,456.1-328,536.1-328c74,0,96,10,146,66c38,42,58,86,58,126c0,34-78,300-172,592.1c-94,290-168,532.1-164,534.1c2,4,190,140,416.1,302.1c226,162,440.1,326,476.1,362.1c88,92,90,198,6,292.1l-58,66l-594.1,10l-594.1,10l-148,460.1c-208,638.1-204,626.1-268,660.1C5048,5019.5,4946,5019.5,4876,4981.5z"/><path d="M3575.8,1112.9l-66-58l-6-2808.4c-4-1950.3,0-2828.4,16-2880.4c12-40,44-92,74-114c50-42,70-42,1406.2-42c1336.2,0,1356.2,0,1406.2,42c30,22,62,74,74,114c16,52,20,930.1,16,2880.4l-6,2808.4l-66,58l-64,58H5000H3639.8L3575.8,1112.9z M5088,302.8c134-56,132-32,132-1350.2v-1182.2h110c142,0,240-40,278-118c40-76,40-128,0-204.1c-54-106-118-118-608.1-118c-504.1,0-558.1,12-614.1,128c-48,100-18,206,72,266.1c52,36,96,46,194,46h128v812.1v814.1l-40-52c-22-28-72-62-108-74c-142-46-290,82-266,232.1c6,38,112,216,252,426C4894,338.8,4932,368.8,5088,302.8z"/><path d="M587.3-597.3l-68-68v-1994.3V-4654l68-68l68-68h1144.2h1144.2l68,68l68,68v1994.3v1994.3l-68,68l-68,68H1799.5H655.3L587.3-597.3z M2159.5-1463.5c412.1-200,608.1-714.1,416.1-1094.2c-24-48-224-268.1-472.1-516.1l-432.1-436.1h394.1c454.1,0,506.1-12,562.1-128c44-94,28-168-50-244l-60-58h-706.1c-780.1,0-784.1,0-842.1,124c-64,134-54,148,600.1,806.1c332.1,336,616.1,630.1,628.1,654.1c34,66,26,206-16,296c-152,328-596.1,332.1-764.1,6c-20-42-38-102-38-136c0-96-50-194-118-228c-80-42-138-40-216,8c-232,140-32,702.1,326.1,912.1c150,88,240,108,458.1,102C2005.5-1401.5,2043.5-1409.5,2159.5-1463.5z"/><path d="M7024.3-989.4c-36-22-74-64-84-92c-12-32-20-716.1-20-1812.3V-4654l68-68l68-68h1144.2h1144.2l68,68l68,68v1762.3c0,1936.3,6,1848.3-120,1912.3c-50,26-214,30-1164.2,30C7126.3-949.4,7088.3-951.4,7024.3-989.4z M8690.6-1873.6c122-62,260-208,310-322c80-186.1,60-430.1-50-598.1l-48-72l72-142c64-122,72-158,74-286c2-258-128-464.1-364.1-580.1l-134-66h-350c-336,0-354.1,2-460.1,52c-158,74-250,162-322,308.1c-114,230-80,432.1,80,478.1c142,40,248-42,280-218c12-68,36-114,72-144c50-44,70-46,350.1-46h296l62,58c106,98,78,274-52,340c-26,12-154,22-316,22h-274l-68,68c-92,92-96,208-10,294l58,58h264c284,0,370.1,20,428.1,102c52,76,42,186-26,262l-58,66h-302.1c-298,0-302,0-354-52c-32-34-60-90-70-150c-38-206-230-286-364.1-150c-58,58-64,74-60,182c6,256,198,496.1,466.1,582.1c28,8,212,14,410.1,12C8578.5-1819.6,8594.5-1821.6,8690.6-1873.6z"/></g></g>
</svg>