<?xml version="1.0" encoding="utf-8"?>
<!-- Svg Vector Icons : http://www.onlinewebfonts.com/icon -->
<!DOCTYPE svg PUBLIC "-//W3C//DTD SVG 1.1//EN" "http://www.w3.org/Graphics/SVG/1.1/DTD/svg11.dtd">
<svg version="1.1" xmlns="http://www.w3.org/2000/svg" xmlns:xlink="http://www.w3.org/1999/xlink" x="0px" y="0px" viewBox="0 0 1000 1000" enable-background="new 0 0 1000 1000" xml:space="preserve">
<metadata> Svg Vector Icons : http://www.onlinewebfonts.com/icon </metadata>
<g><g><path d="M990,394.9c0-14.5-11-23.6-33-27.1l-295.6-43l-132.5-268c-7.5-16.1-17.1-24.1-28.9-24.1c-11.8,0-21.4,8-28.9,24.1l-132.5,268L43,367.8c-22,3.5-33,12.6-33,27.1c0,8.2,4.9,17.7,14.7,28.3l214.4,208.5l-50.6,294.5c-0.8,5.5-1.2,9.4-1.2,11.8c0,8.2,2.1,15.2,6.2,20.9c4.1,5.7,10.3,8.5,18.5,8.5c7.1,0,14.9-2.3,23.6-7.1l264.4-139l264.5,139c8.3,4.7,16.1,7.1,23.5,7.1c7.9,0,13.9-2.8,18-8.5c4.1-5.7,6.2-12.7,6.2-20.9c0-5.1-0.2-9-0.6-11.8l-50.7-294.5l213.8-208.5C984.9,412.9,990,403.5,990,394.9z"/></g><g></g><g></g><g></g><g></g><g></g><g></g><g></g><g></g><g></g><g></g><g></g><g></g><g></g><g></g><g></g></g>
</svg>