<?xml version="1.0" encoding="utf-8"?>
<!-- Svg Vector Icons : http://www.onlinewebfonts.com/icon -->
<!DOCTYPE svg PUBLIC "-//W3C//DTD SVG 1.1//EN" "http://www.w3.org/Graphics/SVG/1.1/DTD/svg11.dtd">
<svg version="1.1" xmlns="http://www.w3.org/2000/svg" xmlns:xlink="http://www.w3.org/1999/xlink" x="0px" y="0px" viewBox="0 0 1000 1000" enable-background="new 0 0 1000 1000" xml:space="preserve">
<metadata> Svg Vector Icons : http://www.onlinewebfonts.com/icon </metadata>
<g><g transform="translate(0.000000,511.000000) scale(0.100000,-0.100000)"><path d="M8849.1,4995.7c-228.8-47-439.1-220.6-545.3-445.2c-59.2-124.6-65.4-155.2-65.4-334.9v-200.1l-631.1-337c-347.2-185.8-643.3-337-657.6-337c-16.4,0-28.6,8.2-28.6,18.4s-44.9,53.1-102.1,93.9c-388,283.9-921.1,173.6-1174.3-243c-18.4-30.6-69.5-22.5-531,89.9c-279.8,67.4-543.2,132.7-586.1,145c-69.4,18.4-75.6,24.5-87.8,118.4c-32.7,236.9-206.3,475.9-422.7,582c-173.6,85.8-353.3,108.2-520.8,65.4c-261.4-63.3-437-208.3-551.4-453.4c-51.1-108.2-57.2-140.9-55.1-337v-216.5L2228,2810.5c-451.3-269.6-669.9-390.1-686.2-375.8c-220.6,167.5-377.8,220.6-602.5,208.3C343,2608.3,6.1,1944.6,328.7,1438.1c81.7-128.7,181.8-214.4,343.1-290c118.4-55.1,153.2-63.3,318.6-63.3c171.5,0,194,6.1,339,75.6c183.8,91.9,281.8,194,369.6,379.9c53.1,114.4,63.3,161.3,63.3,300.2c2,89.9-4.1,185.8-12.3,214.4c-14.3,51.1,10.2,67.4,661.7,457.5l676,402.3l63.3-57.2c87.8-81.7,147-116.4,273.7-157.2c159.3-53.1,406.4-38.8,559.6,32.7c134.8,61.3,298.2,206.3,355.4,312.5c20.4,38.8,42.9,71.5,49,71.5s267.5-63.3,580-138.9l571.8-136.8l24.5-134.8c63.3-341,288-573.9,618.8-641.3c359.4-75.6,708.7,100.1,865.9,435c57.2,120.5,65.4,159.3,67.4,328.8l2.1,192l647.4,347.2l645.4,345.1l83.7-75.6c47-42.9,136.8-100.1,200.2-130.7c100.1-47,140.9-53.1,318.6-53.1c189.9,0,214.4,4.1,339,65.4c163.4,81.7,306.3,226.7,381.9,390.1c47,100.1,55.1,143,55.1,310.4c0,185.8-4.1,204.2-75.6,351.3c-89.8,179.7-194,281.8-371.7,365.6C9204.4,5001.8,8992,5026.3,8849.1,4995.7z"/><path d="M8073,1740.3c-34.7-16.3-69.5-42.9-77.6-63.3c-6.1-18.4-12.2-1458.2-12.2-3198.2v-3165.5l51.1-51.1l51.1-51.1l867.9,6.1c800.6,6.1,870,8.2,902.7,42.9c34.7,34.7,36.8,194,42.9,3196.1c4.1,2275.1-2,3175.7-18.4,3214.5c-12.3,30.6-49,63.3-83.8,75.6C9696.6,1781.2,8154.7,1775,8073,1740.3z"/><path d="M2787.6,888.7l-53.1-40.8v-2775.4V-4703l53.1-40.8c53.1-40.8,75.6-42.9,888.4-42.9c580,0,849.6,6.1,884.3,22.5c28.6,14.3,61.3,51.1,73.5,85.8c30.6,87.8,28.6,5416.1-2.1,5505.9c-12.3,34.7-38.8,73.5-59.2,83.7c-22.5,12.3-371.7,20.4-884.3,20.4C2863.2,931.6,2840.7,929.5,2787.6,888.7z"/><path d="M5424.2,233.1c-18.4-14.3-42.9-53.1-55.1-83.7c-28.6-79.7-28.6-4742.1,0-4827.9c12.2-34.7,44.9-71.5,73.5-85.8c34.7-16.3,304.3-22.5,884.3-22.5c812.8,0,835.3,2,888.4,42.9l53.1,40.8v2438.5V173.9l-53.1,40.8c-53.1,40.8-75.6,42.9-904.7,42.9C5661.1,257.6,5450.7,251.5,5424.2,233.1z"/><path d="M151.1-692L100-741v-1972.8v-1972.8l51.1-49l49-51.1h859.8h859.8l49,51.1l51.1,49v1972.8V-741l-51.1,49l-49,51.1h-859.8H200.1L151.1-692z"/></g></g>
</svg>