<?xml version="1.0" encoding="utf-8"?>
<!-- Svg Vector Icons : http://www.onlinewebfonts.com/icon -->
<!DOCTYPE svg PUBLIC "-//W3C//DTD SVG 1.1//EN" "http://www.w3.org/Graphics/SVG/1.1/DTD/svg11.dtd">
<svg version="1.1" xmlns="http://www.w3.org/2000/svg" xmlns:xlink="http://www.w3.org/1999/xlink" x="0px" y="0px" viewBox="0 0 1000 1000" enable-background="new 0 0 1000 1000" xml:space="preserve">
<metadata> Svg Vector Icons : http://www.onlinewebfonts.com/icon </metadata>
<g><g transform="translate(0.000000,512.000000) scale(0.100000,-0.100000)"><path d="M4651.5,5015.8c-36.4-3.8-149.5-17.3-249.1-26.8c-601.7-65.1-1280.1-289.4-1820.5-597.9c-281.7-161-613.2-396.7-655.4-465.7c-70.9-116.9-26.8-268.3,95.8-327.7c95.8-46,166.7-23,350.7,113.1c569.2,419.7,1247.6,697.6,1971.9,812.5c306.6,47.9,996.5,47.9,1293.5-1.9c709.1-115,1303.1-348.8,1868.5-735.9c243.4-166.7,335.4-243.4,580.7-482.9C8810,2603.1,9229.7,1786.7,9396.4,763.4c49.8-297,49.8-985,1.9-1293.5c-115-724.4-394.8-1404.7-810.6-1966.2c-132.2-180.1-153.3-233.8-122.7-322c46-141.8,195.5-203.1,325.8-136.1c109.2,55.6,408.2,513.6,624.7,954.3c668.8,1364.5,643.9,2995.3-67.1,4373.1c-243.4,471.4-496.3,814.5-900.7,1216.9c-753.1,753.1-1684.5,1224.6-2727,1381.7C5477.4,5008.1,4818.2,5034.9,4651.5,5015.8z"/><path d="M1200.1,3197.1c-99.6-53.7-394.8-498.3-590.2-883.4c-245.3-490.6-390.9-956.3-473.3-1531.2C84.8,433.8,88.6-242.7,144.2-597.2c82.4-523.2,218.5-958.2,454.2-1437.3c251-511.7,515.5-881.5,929.4-1295.4c402.4-404.4,745.5-657.3,1216.9-900.7c1372.1-707.1,2985.7-735.9,4352-76.7c442.7,214.6,917.9,523.2,975.4,634.3c63.2,122.7,1.9,277.9-128.4,320c-95.8,32.6-155.2,11.5-327.7-116.9c-563.4-415.8-1243.7-695.6-1968.1-810.6c-308.5-47.9-996.5-47.9-1293.5,1.9c-711,115-1276.3,335.4-1839.7,716.7c-266.4,180.1-352.6,251.1-609.4,502.1C1184.8-2362.2,761.3-1536.3,596.5-520.6c-49.8,297-49.8,986.9-1.9,1293.5c115,724.4,392.9,1402.8,812.5,1971.9c107.3,143.7,120.7,174.4,120.7,251c0,99.7-34.5,159.1-115,201.2C1343.8,3233.6,1265.3,3233.6,1200.1,3197.1z"/><path d="M1882.3,1167.7c-139.9-36.4-197.4-63.3-297-136.1c-228-166.7-304.7-471.4-187.8-741.6c61.3-143.7,166.7-220.4,458-339.2C2206.2-191,2279-229.3,2348-307.9c115-132.2,99.7-299-42.2-429.3c-138-128.4-289.4-130.3-615.2-13.4c-164.8,59.4-195.5,65.2-251,47.9c-115-38.3-155.2-151.4-95.8-264.5c61.3-118.8,394.8-233.8,670.7-233.8c266.4,0,461.8,69,624.7,222.3c132.2,122.6,195.5,266.4,207,469.5c11.5,205-23,321.9-134.1,446.5C2616.3,48.6,2532,96.5,2223.4,224.9c-431.2,178.2-446.5,189.7-446.5,344.9c0,145.6,132.2,260.6,300.9,260.6c38.3,0,153.3-26.8,254.9-61.3c201.2-65.1,258.7-63.2,325.8,7.7c51.7,55.6,49.8,166.7-1.9,233.8C2539.6,1160.1,2156.4,1236.7,1882.3,1167.7z"/><path d="M5481.2,1156.2c-235.7-61.3-394.8-166.7-536.6-354.5c-170.6-224.2-254.9-490.6-254.9-804.9c0-498.3,226.1-908.3,607.5-1100c189.7-95.8,513.6-124.6,751.2-69c182.1,44.1,331.5,132.2,467.6,276c230,243.4,323.9,505.9,323.9,893c0,266.4-42.2,458-141.8,647.7c-84.3,159.1-298.9,375.6-442.7,442.7C6023.6,1194.6,5730.4,1221.4,5481.2,1156.2z M5985.3,778.7c134.1-46,295.1-210.8,350.7-358.3c92-249.1,92-601.7-1.9-847c-55.6-143.7-197.4-297-325.8-352.6c-78.6-34.5-136.1-44.1-249.1-44.1c-310.4,1.9-509.7,182.1-603.7,548.1c-36.4,145.7-24.9,490.6,21.1,640.1c61.3,191.6,235.7,377.5,402.4,425.4C5678.7,819,5883.7,813.2,5985.3,778.7z"/><path d="M3009.2,1148.6c-72.8-32.6-101.6-82.4-101.6-172.5c0-141.8,105.4-184,465.7-184h243.4v-910.3c0-969.7,3.8-1013.7,92-1061.7c49.8-26.8,166.7-26.8,216.6-1.9c92,49.8,93.9,69,93.9,1050.2v919.9l295.1,5.8c264.5,7.7,302.8,11.5,350.7,47.9c93.9,70.9,93.9,212.7,0,283.6c-53.7,38.3-76.7,40.2-824,44.1C3216.1,1173.5,3059,1169.6,3009.2,1148.6z"/><path d="M7202.1,1150.5c-24.9-11.5-65.2-47.9-86.2-76.7c-40.3-53.7-40.3-72.8-46-1063.6c-5.7-1105.7-1.9-1140.2,103.5-1190.1c78.6-34.5,172.5-24.9,231.9,24.9l53.7,46l9.6,371.8l9.6,369.9l325.8,9.6c300.9,9.6,333.5,15.3,435,61.3c310.4,143.7,479.1,481,419.7,845.1c-28.7,182.1-97.7,320-208.9,417.8c-197.4,172.5-339.2,208.9-837.4,208.9C7361.2,1175.4,7234.7,1167.7,7202.1,1150.5z M8053,751.9c124.6-63.2,182.1-168.6,182.1-331.5c0-205.1-103.5-344.9-289.4-394.8c-40.3-11.5-162.9-17.2-270.2-15.3L7478.1,16l-5.7,373.7c-1.9,205.1,0,385.2,5.7,398.6c7.7,23,55.6,26.8,247.2,19.2C7930.4,801.7,7974.5,794,8053,751.9z"/></g></g>
</svg>