<?xml version="1.0" encoding="utf-8"?>
<!-- Svg Vector Icons : http://www.onlinewebfonts.com/icon -->
<!DOCTYPE svg PUBLIC "-//W3C//DTD SVG 1.1//EN" "http://www.w3.org/Graphics/SVG/1.1/DTD/svg11.dtd">
<svg version="1.1" xmlns="http://www.w3.org/2000/svg" xmlns:xlink="http://www.w3.org/1999/xlink" x="0px" y="0px" viewBox="0 0 1000 1000" enable-background="new 0 0 1000 1000" xml:space="preserve">
<metadata> Svg Vector Icons : http://www.onlinewebfonts.com/icon </metadata>
<g><path d="M500,61.5c59.2,0,116.6,11.6,170.7,34.4c52.2,22.1,99.1,53.7,139.4,94c40.3,40.3,71.9,87.2,94,139.4c22.9,54,34.4,111.4,34.4,170.7c0,59.2-11.6,116.6-34.4,170.7c-22.1,52.2-53.7,99.1-94,139.4c-40.3,40.3-87.2,71.9-139.4,94c-54,22.9-111.4,34.4-170.7,34.4c-59.2,0-116.6-11.6-170.7-34.4c-52.2-22.1-99.1-53.7-139.4-94c-40.3-40.3-71.9-87.2-94-139.4c-22.9-54-34.4-111.4-34.4-170.7c0-59.2,11.6-116.6,34.4-170.7c22.1-52.2,53.7-99.1,94-139.4c40.3-40.3,87.2-71.9,139.4-94C383.4,73.1,440.8,61.5,500,61.5 M500,10C229.4,10,10,229.4,10,500c0,270.6,219.4,490,490,490c270.6,0,490-219.4,490-490C990,229.4,770.6,10,500,10L500,10L500,10z"/><path d="M594.6,482.5C484.7,593.6,381.3,727,381.3,727l-157-260.2l61.1-46.5l100.4,139.4c0,0,79.7-90.4,177-161.8c97.3-71.4,207-124.8,207-124.8l5.9,53.6C775.7,326.7,678.5,398.1,594.6,482.5L594.6,482.5z"/></g>
</svg>