<?xml version="1.0" encoding="utf-8"?>
<!-- Svg Vector Icons : http://www.onlinewebfonts.com/icon -->
<!DOCTYPE svg PUBLIC "-//W3C//DTD SVG 1.1//EN" "http://www.w3.org/Graphics/SVG/1.1/DTD/svg11.dtd">
<svg version="1.1" xmlns="http://www.w3.org/2000/svg" xmlns:xlink="http://www.w3.org/1999/xlink" x="0px" y="0px" viewBox="0 0 1000 1000" enable-background="new 0 0 1000 1000" xml:space="preserve">
<metadata> Svg Vector Icons : http://www.onlinewebfonts.com/icon </metadata>
<g><g transform="translate(0.000000,511.000000) scale(0.100000,-0.100000)"><path d="M4728.8,4973.8c-378.3-107.1-676.9-426.2-756.7-804.5c-82.1-398.8,98-847.8,433-1068.9c202.8-136.7,339.6-177.8,594.8-177.8c255.3,0,392,41,594.8,177.8c161.8,107.1,312.2,296.3,387.4,490c75.2,186.9,75.2,551.5,0,738.4c-109.4,278-339.6,505.9-617.6,613.1C5200.5,5005.7,4897.4,5019.4,4728.8,4973.8z"/><path d="M1490.2,3923.1c-271.2-72.9-474-243.9-601.7-510.5c-66.1-136.7-70.7-166.4-70.7-387.4s4.6-250.7,72.9-392c275.8-583.4,1041.5-720.2,1495.1-264.4c510.5,510.5,275.8,1372-426.2,1558.9C1811.6,3966.4,1649.8,3966.4,1490.2,3923.1z"/><path d="M8044.8,3934.5c-148.1-34.2-353.3-159.5-462.6-280.3c-474-524.2-227.9-1349.2,458.1-1531.5c421.6-111.7,877.4,104.8,1068.9,510.5c68.4,141.3,72.9,170.9,72.9,392c0,214.2-6.8,253-63.8,373.8c-34.2,75.2-98,177.8-141.3,232.5C8769.6,3882.1,8375.3,4012,8044.8,3934.5z"/><path d="M3245.1,1926.7c-123.1-63.8-198.3-168.7-218.8-307.7c-11.4-82,102.6-747.5,553.8-3252.2l567.5-3147.4H5000h852.4L6419.9-1631c451.3,2497.9,565.2,3170.2,553.8,3250c-20.5,139-95.7,243.9-218.8,307.7l-100.3,50.1H5000H3345.4L3245.1,1926.7z"/><path d="M268.6,999.1C170.7,953.5,100,846.4,100,739.3c0-43.3,868.3-4323.4,923-4546.7l11.4-50.1l701.9,4.6l699.7,6.8l278.1,1356c152.7,745.3,280.3,1381.1,280.3,1413c0,31.9-82.1,521.9-186.9,1089.4l-186.9,1030.1H1492.5C441.9,1042.4,355.3,1037.8,268.6,999.1z"/><path d="M7370.2,1021.9c0-13.7-82-474.1-182.3-1025.6c-100.3-553.8-182.3-1023.3-184.6-1043.8c0-22.8,125.4-663.2,280.3-1424.4L7564-3857.6h699.7h702l11.4,52.4c52.4,216.5,923,4503.4,923,4544.5c0,29.6-20.5,93.4-45.6,141.3c-82,161.8-77.5,161.8-1356,161.8C7810.1,1042.4,7370.2,1033.3,7370.2,1021.9z"/></g></g>
</svg>